<svg
    xmlns="http://www.w3.org/2000/svg"
    fill="none"
    width="16"
    height="16"
    viewBox="0 0 16 16"
    role="image"
>
    <path
        fill="currentColor"
        fillRule="evenodd"
        d="M12.57.28a.889.889 0 0 1 1.207.83v8.82c0 .36-.216.684-.548.821-.802.34-1.64.587-2.496.738-.264.04-.53.063-.795.067a5.813 5.813 0 0 1-2.092-.48 4.805 4.805 0 0 0-2.45-.356c-.475.08-.941.199-1.396.356v4.035a.889.889 0 0 1-1.778 0V.89a.89.89 0 0 1 .89-.889c.299.004.576.16.733.416A9.43 9.43 0 0 1 5.268.07c.98-.12 1.976.02 2.886.406.772.33 1.617.452 2.45.355A9.995 9.995 0 0 0 12.572.28zm-1.84 4.537c.43-.063.856-.162 1.271-.294V2.341a9.783 9.783 0 0 1-1.139.25 6.602 6.602 0 0 1-.923.076 4.852 4.852 0 0 1-.605-.045v2.222a7.41 7.41 0 0 1-1.484-.426 7.2 7.2 0 0 0-1.182-.356V1.88a3.117 3.117 0 0 0-1.142-.053c-.52.088-1.03.226-1.525.41v2.172a9.147 9.147 0 0 1 1.396-.356c.22-.03.443-.048.666-.053.203-.002.406.019.605.062V6.73a2.682 2.682 0 0 0-.605-.062 5.926 5.926 0 0 0-.666.053 9.1 9.1 0 0 0-1.396.356v2.138a9.783 9.783 0 0 1 1.139-.249c.305-.047.614-.072.923-.076.202.001.404.015.605.042V6.729a7.2 7.2 0 0 1 1.182.355 7.41 7.41 0 0 0 1.484.427v2.164a3.18 3.18 0 0 0 1.142.054A8.464 8.464 0 0 0 12 9.319V7.191a8.02 8.02 0 0 1-1.271.293 4.933 4.933 0 0 1-.791.072 4.39 4.39 0 0 1-.605-.045V4.844a4.226 4.226 0 0 0 1.395-.026z"
        clipRule="evenodd"
    />
</svg>