<svg xmlns="http://www.w3.org/2000/svg" width="144" height="146" fill="none"><g stroke="#191B1B" stroke-linecap="round" stroke-linejoin="round" stroke-width="4" clip-path="url(#a)"><path fill="#9BDAA7" d="M3.51 50.66c8.47-10.9 30.36-26.09 50.25.3-5.4 7.92-23 18.94-50.25-.3Z"/><path fill="#9BDAA7" d="M48.17 3.61c12.5 5.83 32.18 23.81 10.89 49.08-8.92-3.5-23.59-18.23-10.89-49.08Z"/><path fill="#fff" d="M64.95 66.33v.01a3.13 3.13 0 1 0 5.3-3.33V63l-.02-.02-.05-.08a29.44 29.44 0 0 0-.9-1.33c-.61-.9-1.53-2.16-2.74-3.72-2.42-3.1-6.02-7.36-10.78-11.98-9.52-9.22-23.74-19.99-42.49-25.95a3.13 3.13 0 1 0-1.9 5.96C28.93 31.47 42.35 41.6 51.4 50.37A108.7 108.7 0 0 1 61.6 61.7a79.4 79.4 0 0 1 3.32 4.58l.03.05Z"/><path fill="#7136ED" d="M91.02 59.8a20.87 20.87 0 1 1 14.29-39.22A20.87 20.87 0 0 1 91.02 59.8ZM33 106.17a20.87 20.87 0 1 1 14.3-39.22A20.87 20.87 0 0 1 33 106.17Z"/><path fill="#7136ED" d="M70.23 71.18A20.87 20.87 0 1 1 84.5 31.97a20.87 20.87 0 0 1-14.28 39.21Z"/><path fill="#7136ED" d="M46.6 90.34a20.87 20.87 0 1 1 14.3-39.21 20.87 20.87 0 0 1-14.3 39.21Zm53.03-8.45a20.87 20.87 0 1 1 14.29-39.22A20.87 20.87 0 0 1 99.63 81.9Z"/><path fill="#7136ED" d="M52.75 119.22a20.87 20.87 0 1 1 14.29-39.21 20.87 20.87 0 0 1-14.3 39.21Z"/><path fill="#7136ED" d="M76.01 101.05A20.87 20.87 0 1 1 90.3 61.83 20.87 20.87 0 0 1 76 101.05Z"/><path fill="#7136ED" d="M105.42 111.75a20.87 20.87 0 1 1 14.28-39.21 20.87 20.87 0 0 1-14.28 39.21Z"/><path fill="#7136ED" d="M82.15 129.93a20.87 20.87 0 1 1 14.29-39.22 20.87 20.87 0 0 1-14.29 39.22Z"/><path fill="#7136ED" d="M111.56 140.63a20.87 20.87 0 1 1 14.28-39.21 20.87 20.87 0 0 1-14.28 39.21Z"/></g><defs><clipPath id="a"><path fill="#fff" d="M0 .1h144v145.8H0z"/></clipPath></defs></svg>