<svg width="64" height="64" xmlns="http://www.w3.org/2000/svg" xmlns:xlink="http://www.w3.org/1999/xlink"><defs><path id="a" d="M0 0h64v64H0z"/><path d="M4.222 5.278V3.167c0-.583.473-1.056 1.056-1.056h27.444c.583 0 1.056.473 1.056 1.056v2.11c0 .584-.473 1.056-1.056 1.056H5.278a1.056 1.056 0 0 1-1.056-1.055zm33.22 4.97l-.61-1.22a1.058 1.058 0 0 0-.943-.584H2.11c-.4 0-.764.226-.944.583l-.612 1.22A5.29 5.29 0 0 0 0 12.607v1.115c0 .583.473 1.056 1.056 1.056h1.213C2.68 16.505 3.965 19 6.333 19a3.589 3.589 0 0 0 2.99-2.054c.527-.792.787-1.113 1.233-1.113.445 0 .705.321 1.232 1.113A3.589 3.589 0 0 0 14.778 19a3.589 3.589 0 0 0 2.99-2.054c.527-.792.787-1.113 1.232-1.113.445 0 .705.321 1.233 1.113A3.589 3.589 0 0 0 23.223 19a3.589 3.589 0 0 0 2.989-2.054c.527-.792.787-1.113 1.232-1.113.446 0 .706.321 1.233 1.113A3.589 3.589 0 0 0 31.667 19c2.062 0 3.521-2.523 4.02-4.222h1.257c.583 0 1.056-.473 1.056-1.056v-1.114a5.29 5.29 0 0 0-.557-2.36zM34.834 21.11h-2.11c-.584 0-1.056.473-1.056 1.056v5.277H6.333v-5.277c0-.583-.472-1.056-1.055-1.056H3.167c-.583 0-1.056.473-1.056 1.056v10.555a3.17 3.17 0 0 0 3.167 3.167h27.444a3.17 3.17 0 0 0 3.167-3.167V22.167c0-.583-.473-1.056-1.056-1.056z" id="c"/></defs><g fill="none" fill-rule="evenodd"><mask id="b" fill="#fff"><use xlink:href="#a"/></mask><use fill="#FFF" xlink:href="#a"/><g mask="url(#b)" fill="#CCCCD9"><path d="M0 0h64v64H0z"/></g><g mask="url(#b)"><g transform="translate(13 13)"><mask id="d" fill="#fff"><use xlink:href="#c"/></mask><g mask="url(#d)"><path fill="#FFF" d="M0 0h38v38H0z"/></g></g></g></g></svg>