<svg xmlns="http://www.w3.org/2000/svg" width="40" height="40" fill="none"><path fill="#E4DDFF" d="M0 0h40v40H0z"/><path fill="#191B1B" d="M14.303 17.697a2.4 2.4 0 0 0 3.697-.37 2.398 2.398 0 0 0 4 0 2.4 2.4 0 1 0 3.697-3.024l-.234-.235a1.6 1.6 0 0 0-1.131-.468h-8.664a1.6 1.6 0 0 0-1.13.468l-.235.234a2.4 2.4 0 0 0 0 3.395ZM14.4 19.225a3.606 3.606 0 0 0 3.6-.232c.572.383 1.26.606 2 .606s1.428-.223 2-.606c1.077.722 2.458.8 3.6.233V25.2h.2a.6.6 0 1 1 0 1.2h-3.6a.6.6 0 0 1-.6-.6V23a.6.6 0 0 0-.6-.6h-2a.6.6 0 0 0-.6.6v2.8a.6.6 0 0 1-.6.6h-3.6a.6.6 0 1 1 0-1.2h.2v-5.975Z"/></svg>