<?xml version="1.0" encoding="UTF-8" standalone="no"?>
<svg
   width="79.726936"
   height="80.9795"
   viewBox="0 0 79.726936 80.9795"
   fill="none"
   version="1.1"
   xmlns="http://www.w3.org/2000/svg">
   <style>
   circle {
    fill: #5d21d2;
   }
   path {
    fill: #41d9cc;
   }
    @media (prefers-color-scheme: dark) {
      circle {
        fill: #fff;
      }
    }
   </style>
  <path
     d="m 1.1299512,27.910761 c 4.8194,-6.2015 17.2896998,-14.8495 28.6152998,0.1703 -3.0754,4.5088 -13.1039,10.787 -28.6152998,-0.1703 z"
     stroke="#040222"
     stroke-width="2.26"
     stroke-linecap="round"
     stroke-linejoin="round"
     id="path1" />
  <path
     d="m 26.560751,1.1299606 c 7.1183,3.3189 18.3241,13.5526004 6.2005,27.9360004 -5.08,-1.9951 -13.4321,-10.3755 -6.2005,-27.9360004 z"
     stroke="#040222"
     stroke-width="2.26"
     stroke-linecap="round"
     stroke-linejoin="round"
     id="path2" />
  <path
     d="m 36.114051,36.834961 0.0027,0.0043 c 0.5235,0.8327 1.6234,1.0846 2.4565,0.5614 0.8334,-0.5233 1.084,-1.6243 0.5607,-2.4577 l -0.0037,-0.006 -0.0086,-0.0135 -0.029,-0.0453 c -0.0247,-0.0384 -0.06,-0.0928 -0.1059,-0.1623 -0.0917,-0.1392 -0.2259,-0.3391 -0.4023,-0.593 -0.3527,-0.5076 -0.8746,-1.2316 -1.5639,-2.1169 -1.3779,-1.7697 -3.4291,-4.1898 -6.1408,-6.8184 -5.4161,-5.2503 -13.5161,-11.3799 -24.1933,-14.7765 -0.9376998,-0.2983 -1.9397998,0.22 -2.2380998,1.1578 -0.2983,0.9378 0.22,1.9398 1.1578,2.2381 9.9989998,3.1809 17.6385998,8.9426 22.7931998,13.9393 2.5737,2.4949 4.5155,4.7872 5.8094,6.449 0.6466,0.8304 1.1302,1.502 1.4491,1.961 0.1594,0.2294 0.2775,0.4055 0.3541,0.5217 0.0383,0.058 0.0662,0.101 0.0837,0.1282 z"
     fill="#ffffff"
     stroke="#040222"
     stroke-width="2.26"
     stroke-linecap="round"
     stroke-linejoin="round"
     id="path3" />
  <circle
     r="11.878804"
     transform="matrix(-0.93969271,-0.34201989,-0.34201989,0.93969271,0,0)"
     stroke="#040222"
     stroke-width="2.26"
     stroke-linecap="round"
     stroke-linejoin="round"
     id="circle3"
     cx="-59.214447"
     cy="1.8100013" />
  <circle
     r="11.878804"
     transform="matrix(-0.93969271,-0.34201989,-0.34201989,0.93969271,0,0)"
     stroke="#040222"
     stroke-width="2.26"
     stroke-linecap="round"
     stroke-linejoin="round"
     id="circle4"
     cx="-37.195915"
     cy="37.913101" />
  <circle
     r="11.878804"
     transform="matrix(-0.93969271,-0.34201989,-0.34201989,0.93969271,0,0)"
     stroke="#040222"
     stroke-width="2.26"
     stroke-linecap="round"
     stroke-linejoin="round"
     id="circle5"
     cx="-50.305103"
     cy="11.949385" />
  <circle
     r="11.878804"
     transform="matrix(-0.93969271,-0.34201989,-0.34201989,0.93969271,0,0)"
     stroke="#040222"
     stroke-width="2.26"
     stroke-linecap="round"
     stroke-linejoin="round"
     id="circle6"
     cx="-41.396107"
     cy="26.797926" />
  <circle
     r="11.878804"
     transform="matrix(-0.93969271,-0.34201989,-0.34201989,0.93969271,0,0)"
     stroke="#040222"
     stroke-width="2.26"
     stroke-linecap="round"
     stroke-linejoin="round"
     id="circle7"
     cx="-68.123199"
     cy="11.949415" />
  <circle
     r="11.878804"
     transform="matrix(-0.93969271,-0.34201989,-0.34201989,0.93969271,0,0)"
     stroke="#040222"
     stroke-width="2.26"
     stroke-linecap="round"
     stroke-linejoin="round"
     id="circle8"
     cx="-50.305111"
     cy="41.052422" />
  <circle
     r="11.878804"
     transform="matrix(-0.93969271,-0.34201989,-0.34201989,0.93969271,0,0)"
     stroke="#040222"
     stroke-width="2.26"
     stroke-linecap="round"
     stroke-linejoin="round"
     id="circle9"
     cx="-59.214485"
     cy="26.797857" />
  <circle
     r="11.878804"
     transform="matrix(-0.93969271,-0.34201989,-0.34201989,0.93969271,0,0)"
     stroke="#040222"
     stroke-width="2.26"
     stroke-linecap="round"
     stroke-linejoin="round"
     id="circle10"
     cx="-77.03215"
     cy="26.797964" />
  <circle
     r="11.878804"
     transform="matrix(-0.93969271,-0.34201989,-0.34201989,0.93969271,0,0)"
     stroke="#040222"
     stroke-width="2.26"
     stroke-linecap="round"
     stroke-linejoin="round"
     id="circle11"
     cx="-68.123215"
     cy="41.052452" />
  <circle
     r="11.878804"
     transform="matrix(-0.93969271,-0.34201989,-0.34201989,0.93969271,0,0)"
     stroke="#040222"
     stroke-width="2.26"
     stroke-linecap="round"
     stroke-linejoin="round"
     id="circle12"
     cx="-85.941467"
     cy="41.052448" />
</svg>
