<svg width="244" height="175" viewBox="0 0 244 175" fill="none" xmlns="http://www.w3.org/2000/svg">
<rect width="244" height="175" fill="#F4EFFC"/>
<mask id="path-1-inside-1_1167_2509" fill="white">
<path d="M53.5 57.5H190.5V77.5H53.5V57.5Z"/>
</mask>
<path d="M53.5 58.5H190.5V56.5H53.5V58.5ZM190.5 76.5H53.5V78.5H190.5V76.5Z" fill="#DFD3F6" mask="url(#path-1-inside-1_1167_2509)"/>
<path d="M57.5 65.5C57.5 63.2909 59.2909 61.5 61.5 61.5H130.5C132.709 61.5 134.5 63.2909 134.5 65.5V69.5C134.5 71.7091 132.709 73.5 130.5 73.5H61.5C59.2909 73.5 57.5 71.7091 57.5 69.5V65.5Z" fill="#7542D9"/>
<circle cx="180.5" cy="67.5" r="6" fill="#DFD3F6"/>
<path d="M57.5 85.5C57.5 83.2909 59.2909 81.5 61.5 81.5H130.5C132.709 81.5 134.5 83.2909 134.5 85.5V89.5C134.5 91.7091 132.709 93.5 130.5 93.5H61.5C59.2909 93.5 57.5 91.7091 57.5 89.5V85.5Z" fill="#7542D9"/>
<circle cx="180.5" cy="87.5" r="6" fill="#DFD3F6"/>
<mask id="path-7-inside-2_1167_2509" fill="white">
<path d="M53.5 97.5H190.5V117.5H53.5V97.5Z"/>
</mask>
<path d="M53.5 98.5H190.5V96.5H53.5V98.5ZM190.5 116.5H53.5V118.5H190.5V116.5Z" fill="#DFD3F6" mask="url(#path-7-inside-2_1167_2509)"/>
<path d="M57.5 105.5C57.5 103.291 59.2909 101.5 61.5 101.5H130.5C132.709 101.5 134.5 103.291 134.5 105.5V109.5C134.5 111.709 132.709 113.5 130.5 113.5H61.5C59.2909 113.5 57.5 111.709 57.5 109.5V105.5Z" fill="#7542D9"/>
<circle cx="180.5" cy="107.5" r="6" fill="#DFD3F6"/>
</svg>
