<svg width="253" height="171" viewBox="0 0 253 171" fill="none" xmlns="http://www.w3.org/2000/svg">
<rect width="253" height="171" fill="#F3F0FF"/>
<path d="M71 77.5C71 75.567 72.567 74 74.5 74H158V97H74.5C72.567 97 71 95.433 71 93.5V77.5Z" fill="#F9F9FA"/>
<path d="M71 77.5C71 75.567 72.567 74 74.5 74H158V97H74.5C72.567 97 71 95.433 71 93.5V77.5Z" stroke="#601DD3"/>
<mask id="path-2-inside-1_1115_1828" fill="white">
<path d="M158.5 73.5H178.5C180.709 73.5 182.5 75.2909 182.5 77.5V93.5C182.5 95.7091 180.709 97.5 178.5 97.5H158.5V73.5Z"/>
</mask>
<path d="M158.5 73.5H178.5C180.709 73.5 182.5 75.2909 182.5 77.5V93.5C182.5 95.7091 180.709 97.5 178.5 97.5H158.5V73.5Z" fill="#F9F9FA"/>
<path d="M158.5 72.5H178.5C181.261 72.5 183.5 74.7386 183.5 77.5H181.5C181.5 75.8431 180.157 74.5 178.5 74.5H158.5V72.5ZM183.5 93.5C183.5 96.2614 181.261 98.5 178.5 98.5H158.5V96.5H178.5C180.157 96.5 181.5 95.1569 181.5 93.5H183.5ZM158.5 97.5V73.5V97.5ZM178.5 72.5C181.261 72.5 183.5 74.7386 183.5 77.5V93.5C183.5 96.2614 181.261 98.5 178.5 98.5V96.5C180.157 96.5 181.5 95.1569 181.5 93.5V77.5C181.5 75.8431 180.157 74.5 178.5 74.5V72.5Z" fill="#601DD3" mask="url(#path-2-inside-1_1115_1828)"/>
</svg>
