<svg width="244" height="175" viewBox="0 0 244 175" fill="none" xmlns="http://www.w3.org/2000/svg">
<rect width="244" height="175" fill="#F4EFFC"/>
<path d="M74.5 49.5C74.5 47.567 76.067 46 78 46H166C167.933 46 169.5 47.567 169.5 49.5V125.5C169.5 127.433 167.933 129 166 129H78C76.067 129 74.5 127.433 74.5 125.5V49.5Z" fill="#F9F9FA"/>
<path d="M74.5 49.5C74.5 47.567 76.067 46 78 46H166C167.933 46 169.5 47.567 169.5 49.5V125.5C169.5 127.433 167.933 129 166 129H78C76.067 129 74.5 127.433 74.5 125.5V49.5Z" stroke="#5D21D2"/>
<rect x="82" y="55.5" width="8" height="8" rx="2" fill="#DFD3F6"/>
<rect x="102" y="53.5" width="40" height="12" rx="4" fill="#DFD3F6"/>
<rect x="154" y="55.5" width="8" height="8" rx="2" fill="#DFD3F6"/>
<rect x="82" y="77.5" width="8" height="8" rx="2" fill="#DFD3F6"/>
<rect x="94" y="77.5" width="8" height="8" rx="2" fill="#DFD3F6"/>
<rect x="106" y="77.5" width="8" height="8" rx="2" fill="#DFD3F6"/>
<rect x="118" y="77.5" width="8" height="8" rx="2" fill="#DFD3F6"/>
<rect x="130" y="77.5" width="8" height="8" rx="2" fill="#DFD3F6"/>
<rect x="142" y="77.5" width="8" height="8" rx="2" fill="#DFD3F6"/>
<rect x="154" y="77.5" width="8" height="8" rx="2" fill="#DFD3F6"/>
<rect x="82" y="89.5" width="8" height="8" rx="2" fill="#DFD3F6"/>
<rect x="94" y="89.5" width="8" height="8" rx="2" fill="#DFD3F6"/>
<rect x="106" y="89.5" width="8" height="8" rx="2" fill="#DFD3F6"/>
<rect x="118" y="89.5" width="8" height="8" rx="2" fill="#DFD3F6"/>
<rect x="130" y="89.5" width="8" height="8" rx="2" fill="#DFD3F6"/>
<rect x="142" y="89.5" width="8" height="8" rx="2" fill="#DFD3F6"/>
<rect x="154" y="89.5" width="8" height="8" rx="2" fill="#DFD3F6"/>
<rect x="82" y="101.5" width="8" height="8" rx="2" fill="#DFD3F6"/>
<rect x="94" y="101.5" width="8" height="8" rx="2" fill="#DFD3F6"/>
<rect x="106" y="101.5" width="8" height="8" rx="2" fill="#DFD3F6"/>
<rect x="118" y="101.5" width="8" height="8" rx="2" fill="#DFD3F6"/>
<rect x="130" y="101.5" width="8" height="8" rx="2" fill="#DFD3F6"/>
<rect x="142" y="101.5" width="8" height="8" rx="2" fill="#DFD3F6"/>
<rect x="154" y="101.5" width="8" height="8" rx="2" fill="#DFD3F6"/>
<rect x="82" y="113.5" width="8" height="8" rx="2" fill="#DFD3F6"/>
<rect x="94" y="113.5" width="8" height="8" rx="2" fill="#DFD3F6"/>
<rect x="106" y="113.5" width="8" height="8" rx="2" fill="#DFD3F6"/>
<rect x="118" y="113.5" width="8" height="8" rx="2" fill="#DFD3F6"/>
<rect x="130" y="113.5" width="8" height="8" rx="2" fill="#DFD3F6"/>
<rect x="142" y="113.5" width="8" height="8" rx="2" fill="#DFD3F6"/>
<rect x="154" y="113.5" width="8" height="8" rx="2" fill="#DFD3F6"/>
</svg>
