<svg width="244" height="175" viewBox="0 0 244 175" fill="none" xmlns="http://www.w3.org/2000/svg">
<rect width="244" height="175" fill="#F3F0FF"/>
<path d="M28.5 49.5C28.5 47.567 30.067 46 32 46H212C213.933 46 215.5 47.567 215.5 49.5V125.5C215.5 127.433 213.933 129 212 129H32C30.067 129 28.5 127.433 28.5 125.5V49.5Z" fill="#F9F9FA"/>
<path d="M28.5 49.5C28.5 47.567 30.067 46 32 46H212C213.933 46 215.5 47.567 215.5 49.5V125.5C215.5 127.433 213.933 129 212 129H32C30.067 129 28.5 127.433 28.5 125.5V49.5Z" stroke="#601DD3"/>
<rect x="36" y="55.5" width="8" height="8" rx="2" fill="#e4ddff"/>
<rect x="56" y="53.5" width="40" height="12" rx="4" fill="#e4ddff"/>
<rect x="36" y="77.5" width="8" height="8" rx="2" fill="#e4ddff"/>
<rect x="48" y="77.5" width="8" height="8" rx="2" fill="#e4ddff"/>
<rect x="60" y="77.5" width="8" height="8" rx="2" fill="#e4ddff"/>
<rect x="72" y="77.5" width="8" height="8" rx="2" fill="#e4ddff"/>
<rect x="84" y="77.5" width="8" height="8" rx="2" fill="#e4ddff"/>
<rect x="96" y="77.5" width="8" height="8" rx="2" fill="#e4ddff"/>
<rect x="108" y="77.5" width="8" height="8" rx="2" fill="#e4ddff"/>
<rect x="36" y="89.5" width="8" height="8" rx="2" fill="#e4ddff"/>
<rect x="48" y="89.5" width="8" height="8" rx="2" fill="#e4ddff"/>
<rect x="60" y="89.5" width="8" height="8" rx="2" fill="#e4ddff"/>
<rect x="72" y="89.5" width="8" height="8" rx="2" fill="#e4ddff"/>
<rect x="84" y="89.5" width="8" height="8" rx="2" fill="#e4ddff"/>
<rect x="96" y="89.5" width="8" height="8" rx="2" fill="#e4ddff"/>
<rect x="108" y="89.5" width="8" height="8" rx="2" fill="#e4ddff"/>
<rect x="36" y="101.5" width="8" height="8" rx="2" fill="#e4ddff"/>
<rect x="48" y="101.5" width="8" height="8" rx="2" fill="#e4ddff"/>
<rect x="60" y="101.5" width="8" height="8" rx="2" fill="#e4ddff"/>
<rect x="72" y="101.5" width="8" height="8" rx="2" fill="#e4ddff"/>
<rect x="84" y="101.5" width="8" height="8" rx="2" fill="#e4ddff"/>
<rect x="96" y="101.5" width="8" height="8" rx="2" fill="#e4ddff"/>
<rect x="108" y="101.5" width="8" height="8" rx="2" fill="#e4ddff"/>
<rect x="36" y="113.5" width="8" height="8" rx="2" fill="#e4ddff"/>
<rect x="48" y="113.5" width="8" height="8" rx="2" fill="#e4ddff"/>
<rect x="60" y="113.5" width="8" height="8" rx="2" fill="#e4ddff"/>
<rect x="72" y="113.5" width="8" height="8" rx="2" fill="#e4ddff"/>
<rect x="84" y="113.5" width="8" height="8" rx="2" fill="#e4ddff"/>
<rect x="96" y="113.5" width="8" height="8" rx="2" fill="#e4ddff"/>
<rect x="108" y="113.5" width="8" height="8" rx="2" fill="#e4ddff"/>
<rect x="148" y="53.5" width="40" height="12" rx="4" fill="#e4ddff"/>
<rect x="200" y="55.5" width="8" height="8" rx="2" fill="#e4ddff"/>
<rect x="128" y="77.5" width="8" height="8" rx="2" fill="#e4ddff"/>
<rect x="140" y="77.5" width="8" height="8" rx="2" fill="#e4ddff"/>
<rect x="152" y="77.5" width="8" height="8" rx="2" fill="#e4ddff"/>
<rect x="164" y="77.5" width="8" height="8" rx="2" fill="#e4ddff"/>
<rect x="176" y="77.5" width="8" height="8" rx="2" fill="#e4ddff"/>
<rect x="188" y="77.5" width="8" height="8" rx="2" fill="#e4ddff"/>
<rect x="200" y="77.5" width="8" height="8" rx="2" fill="#e4ddff"/>
<rect x="128" y="89.5" width="8" height="8" rx="2" fill="#e4ddff"/>
<rect x="140" y="89.5" width="8" height="8" rx="2" fill="#e4ddff"/>
<rect x="152" y="89.5" width="8" height="8" rx="2" fill="#e4ddff"/>
<rect x="164" y="89.5" width="8" height="8" rx="2" fill="#e4ddff"/>
<rect x="176" y="89.5" width="8" height="8" rx="2" fill="#e4ddff"/>
<rect x="188" y="89.5" width="8" height="8" rx="2" fill="#e4ddff"/>
<rect x="200" y="89.5" width="8" height="8" rx="2" fill="#e4ddff"/>
<rect x="128" y="101.5" width="8" height="8" rx="2" fill="#e4ddff"/>
<rect x="140" y="101.5" width="8" height="8" rx="2" fill="#e4ddff"/>
<rect x="152" y="101.5" width="8" height="8" rx="2" fill="#e4ddff"/>
<rect x="164" y="101.5" width="8" height="8" rx="2" fill="#e4ddff"/>
<rect x="176" y="101.5" width="8" height="8" rx="2" fill="#e4ddff"/>
<rect x="188" y="101.5" width="8" height="8" rx="2" fill="#e4ddff"/>
<rect x="200" y="101.5" width="8" height="8" rx="2" fill="#e4ddff"/>
<rect x="128" y="113.5" width="8" height="8" rx="2" fill="#e4ddff"/>
<rect x="140" y="113.5" width="8" height="8" rx="2" fill="#e4ddff"/>
<rect x="152" y="113.5" width="8" height="8" rx="2" fill="#e4ddff"/>
<rect x="164" y="113.5" width="8" height="8" rx="2" fill="#e4ddff"/>
<rect x="176" y="113.5" width="8" height="8" rx="2" fill="#e4ddff"/>
<rect x="188" y="113.5" width="8" height="8" rx="2" fill="#e4ddff"/>
<rect x="200" y="113.5" width="8" height="8" rx="2" fill="#e4ddff"/>
</svg>
