<svg width="244" height="175" viewBox="0 0 244 175" fill="none" xmlns="http://www.w3.org/2000/svg">
<rect width="244" height="175" fill="#F3F0FF"/>
<rect x="60.5" y="98.5" width="120" height="18" rx="3.5" fill="#F9F9FA" stroke="#7136ed"/>
<rect x="56.5" y="94.5" width="129" height="18" rx="3.5" fill="#F9F9FA" stroke="#7136ed"/>
<path d="M54 70.5C54 68.567 55.567 67 57.5 67H186.5C188.433 67 190 68.567 190 70.5V104.5C190 106.433 188.433 108 186.5 108H57.5C55.567 108 54 106.433 54 104.5V70.5Z" fill="#F9F9FA"/>
<path d="M54 70.5C54 68.567 55.567 67 57.5 67H186.5C188.433 67 190 68.567 190 70.5V104.5C190 106.433 188.433 108 186.5 108H57.5C55.567 108 54 106.433 54 104.5V70.5Z" stroke="#7136ed"/>
<rect x="61.5" y="74.5" width="65" height="10" rx="4" fill="#7136ed"/>
<rect x="61.5" y="92.5" width="78" height="8" rx="4" fill="#e4ddff"/>
<rect x="153.5" y="75.5" width="29" height="8" rx="4" fill="#e4ddff"/>
<rect x="153.5" y="91.5" width="29" height="8" rx="4" fill="#e4ddff"/>
</svg>
