<svg width="244" height="175" viewBox="0 0 244 175" fill="none" xmlns="http://www.w3.org/2000/svg">
<g clip-path="url(#clip0_1115_1904)">
<rect width="244" height="175" fill="#F3F0FF"/>
<rect x="74.5" y="76" width="95" height="23" rx="3.5" fill="#F9F9FA"/>
<rect x="74.5" y="76" width="95" height="23" rx="3.5" stroke="#601DD3"/>
<path d="M151 84C151 81.7909 152.791 80 155 80H162C164.209 80 166 81.7909 166 84V91C166 93.2091 164.209 95 162 95H155C152.791 95 151 93.2091 151 91V84Z" fill="#e4ddff"/>
<g opacity="0.6">
<path d="M74.5 108C74.5 106.067 76.067 104.5 78 104.5H166C167.933 104.5 169.5 106.067 169.5 108V184C169.5 185.933 167.933 187.5 166 187.5H78C76.067 187.5 74.5 185.933 74.5 184V108Z" fill="#F9F9FA"/>
<path d="M74.5 108C74.5 106.067 76.067 104.5 78 104.5H166C167.933 104.5 169.5 106.067 169.5 108V184C169.5 185.933 167.933 187.5 166 187.5H78C76.067 187.5 74.5 185.933 74.5 184V108Z" stroke="#601DD3"/>
<rect x="82" y="114" width="8" height="8" rx="2" fill="#e4ddff"/>
<rect x="102" y="112" width="40" height="12" rx="4" fill="#e4ddff"/>
<rect x="154" y="114" width="8" height="8" rx="2" fill="#e4ddff"/>
<rect x="82" y="136" width="8" height="8" rx="2" fill="#e4ddff"/>
<rect x="94" y="136" width="8" height="8" rx="2" fill="#e4ddff"/>
<rect x="106" y="136" width="8" height="8" rx="2" fill="#e4ddff"/>
<rect x="118" y="136" width="8" height="8" rx="2" fill="#e4ddff"/>
<rect x="130" y="136" width="8" height="8" rx="2" fill="#e4ddff"/>
<rect x="142" y="136" width="8" height="8" rx="2" fill="#e4ddff"/>
<rect x="154" y="136" width="8" height="8" rx="2" fill="#e4ddff"/>
<rect x="82" y="148" width="8" height="8" rx="2" fill="#e4ddff"/>
<rect x="94" y="148" width="8" height="8" rx="2" fill="#e4ddff"/>
<rect x="106" y="148" width="8" height="8" rx="2" fill="#e4ddff"/>
<rect x="118" y="148" width="8" height="8" rx="2" fill="#e4ddff"/>
<rect x="130" y="148" width="8" height="8" rx="2" fill="#e4ddff"/>
<rect x="142" y="148" width="8" height="8" rx="2" fill="#e4ddff"/>
<rect x="154" y="148" width="8" height="8" rx="2" fill="#e4ddff"/>
<rect x="82" y="160" width="8" height="8" rx="2" fill="#e4ddff"/>
<rect x="94" y="160" width="8" height="8" rx="2" fill="#e4ddff"/>
<rect x="106" y="160" width="8" height="8" rx="2" fill="#e4ddff"/>
<rect x="118" y="160" width="8" height="8" rx="2" fill="#e4ddff"/>
<rect x="130" y="160" width="8" height="8" rx="2" fill="#e4ddff"/>
<rect x="142" y="160" width="8" height="8" rx="2" fill="#e4ddff"/>
<rect x="154" y="160" width="8" height="8" rx="2" fill="#e4ddff"/>
<rect x="82" y="172" width="8" height="8" rx="2" fill="#e4ddff"/>
<rect x="94" y="172" width="8" height="8" rx="2" fill="#e4ddff"/>
<rect x="106" y="172" width="8" height="8" rx="2" fill="#e4ddff"/>
<rect x="118" y="172" width="8" height="8" rx="2" fill="#e4ddff"/>
<rect x="130" y="172" width="8" height="8" rx="2" fill="#e4ddff"/>
<rect x="142" y="172" width="8" height="8" rx="2" fill="#e4ddff"/>
<rect x="154" y="172" width="8" height="8" rx="2" fill="#e4ddff"/>
</g>
</g>
<defs>
<clipPath id="clip0_1115_1904">
<rect width="244" height="175" fill="white"/>
</clipPath>
</defs>
</svg>
