<svg width="244" height="175" viewBox="0 0 244 175" fill="none" xmlns="http://www.w3.org/2000/svg">
<rect width="244" height="175" fill="#F4EFFC"/>
<rect x="69" y="52.5" width="106" height="8" rx="4" fill="#7542D9"/>
<rect x="55.5" y="76.5" width="133" height="8" rx="4" fill="#DFD3F6"/>
<path d="M75.5 104.5C75.5 102.291 77.2909 100.5 79.5 100.5H164.5C166.709 100.5 168.5 102.291 168.5 104.5V118.5C168.5 120.709 166.709 122.5 164.5 122.5H79.5C77.2909 122.5 75.5 120.709 75.5 118.5V104.5Z" fill="#5D21D2"/>
<path d="M83.5 111.5C83.5 109.291 85.2909 107.5 87.5 107.5H156.5C158.709 107.5 160.5 109.291 160.5 111.5C160.5 113.709 158.709 115.5 156.5 115.5H87.5C85.2909 115.5 83.5 113.709 83.5 111.5Z" fill="#F4EFFC"/>
</svg>
