<svg width="244" height="175" viewBox="0 0 244 175" fill="none" xmlns="http://www.w3.org/2000/svg">
<rect width="244" height="175" fill="#F3F0FF"/>
<path d="M55.5 75.5C55.5 73.2909 57.2909 71.5 59.5 71.5H184.5C186.709 71.5 188.5 73.2909 188.5 75.5V99.5C188.5 101.709 186.709 103.5 184.5 103.5H59.5C57.2909 103.5 55.5 101.709 55.5 99.5V75.5Z" fill="#601DD3"/>
<path d="M83.5 85.5C83.5 83.2909 85.2909 81.5 87.5 81.5H156.5C158.709 81.5 160.5 83.2909 160.5 85.5V89.5C160.5 91.7091 158.709 93.5 156.5 93.5H87.5C85.2909 93.5 83.5 91.7091 83.5 89.5V85.5Z" fill="#F3F0FF"/>
<g filter="url(#filter0_d_1088_578)">
<mask id="path-3-outside-1_1088_578" maskUnits="userSpaceOnUse" x="160" y="90" width="16" height="19" fill="black">
<rect fill="white" x="160" y="90" width="16" height="19"/>
<path fill-rule="evenodd" clip-rule="evenodd" d="M164.836 101L163.949 99.6453C163.344 98.7203 162.054 98.3829 161.068 98.89L161.298 98.7718C161.053 98.8977 160.935 99.2114 161.036 99.4721L162.263 102.647C162.458 103.151 162.955 103.863 163.367 104.22C163.367 104.22 165.836 106.264 165.836 107.03V108H169.836L170.836 106L171.836 108H172.836V107.03C172.836 106.264 174.344 103.851 174.344 103.851C174.622 103.382 174.854 102.555 174.854 102.007V97.9718C174.836 97.0785 174.076 96.3545 173.139 96.3545C172.671 96.3545 172.291 96.7165 172.291 97.1634V97.4866C172.291 96.5933 171.532 95.8693 170.595 95.8693C170.126 95.8693 169.746 96.2313 169.746 96.6782V97.0013C169.746 96.108 168.987 95.3841 168.05 95.3841C167.581 95.3841 167.201 95.7461 167.201 96.193V96.5161C167.201 96.3726 167.186 96.2584 167.157 96.168L166.898 92.0012C166.863 91.4378 166.388 91 165.836 91C165.279 91 164.836 91.4476 164.836 91.9998V96V101ZM171.854 100H172.854V104H171.854V100ZM169.854 100H170.854V104H169.854V100ZM167.854 100H168.854V104H167.854V100Z"/>
</mask>
<path fill-rule="evenodd" clip-rule="evenodd" d="M164.836 101L163.949 99.6453C163.344 98.7203 162.054 98.3829 161.068 98.89L161.298 98.7718C161.053 98.8977 160.935 99.2114 161.036 99.4721L162.263 102.647C162.458 103.151 162.955 103.863 163.367 104.22C163.367 104.22 165.836 106.264 165.836 107.03V108H169.836L170.836 106L171.836 108H172.836V107.03C172.836 106.264 174.344 103.851 174.344 103.851C174.622 103.382 174.854 102.555 174.854 102.007V97.9718C174.836 97.0785 174.076 96.3545 173.139 96.3545C172.671 96.3545 172.291 96.7165 172.291 97.1634V97.4866C172.291 96.5933 171.532 95.8693 170.595 95.8693C170.126 95.8693 169.746 96.2313 169.746 96.6782V97.0013C169.746 96.108 168.987 95.3841 168.05 95.3841C167.581 95.3841 167.201 95.7461 167.201 96.193V96.5161C167.201 96.3726 167.186 96.2584 167.157 96.168L166.898 92.0012C166.863 91.4378 166.388 91 165.836 91C165.279 91 164.836 91.4476 164.836 91.9998V96V101ZM171.854 100H172.854V104H171.854V100ZM169.854 100H170.854V104H169.854V100ZM167.854 100H168.854V104H167.854V100Z" fill="white"/>
<path d="M164.836 101L163.999 101.548L165.836 104.354V101H164.836ZM163.949 99.6453L164.786 99.0977L163.949 99.6453ZM161.036 99.4721L160.103 99.8327L161.036 99.4721ZM162.263 102.647L163.196 102.287L162.263 102.647ZM163.367 104.22L162.711 104.975L162.72 104.983L162.729 104.991L163.367 104.22ZM165.836 108H164.836V109H165.836V108ZM169.836 108V109H170.454L170.73 108.447L169.836 108ZM170.836 106L171.73 105.553L170.836 103.764L169.941 105.553L170.836 106ZM171.836 108L170.941 108.447L171.218 109H171.836V108ZM172.836 108V109H173.836V108H172.836ZM174.344 103.851L175.192 104.381L175.199 104.371L175.205 104.36L174.344 103.851ZM174.854 97.9718H175.854V97.9617L175.853 97.9516L174.854 97.9718ZM167.157 96.168L166.158 96.23L166.166 96.3578L166.206 96.4795L167.157 96.168ZM166.898 92.0012L165.9 92.0632V92.0632L166.898 92.0012ZM164.836 91.9998H163.836H164.836ZM172.854 100H173.854V99H172.854V100ZM172.854 104V105H173.854V104H172.854ZM171.854 104H170.854V105H171.854V104ZM170.854 100H171.854V99H170.854V100ZM170.854 104V105H171.854V104H170.854ZM169.854 104H168.854V105H169.854V104ZM168.854 100H169.854V99H168.854V100ZM168.854 104V105H169.854V104H168.854ZM167.854 104H166.854V105H167.854V104ZM165.672 100.452L164.786 99.0977L163.112 100.193L163.999 101.548L165.672 100.452ZM164.786 99.0977C163.898 97.7415 162.049 97.2611 160.61 98.0006L161.525 99.7793C162.059 99.5047 162.789 99.6992 163.112 100.193L164.786 99.0977ZM161.525 99.7793L161.755 99.6612L160.84 97.8825L160.61 98.0006L161.525 99.7793ZM160.84 97.8825C160.131 98.2471 159.822 99.1052 160.103 99.8327L161.969 99.1116C162.014 99.2295 162.005 99.3396 161.974 99.4213C161.944 99.5027 161.876 99.5986 161.755 99.6612L160.84 97.8825ZM160.103 99.8327L161.331 103.008L163.196 102.287L161.969 99.1116L160.103 99.8327ZM161.331 103.008C161.583 103.662 162.175 104.51 162.711 104.975L164.022 103.465C163.735 103.216 163.333 102.64 163.196 102.287L161.331 103.008ZM163.367 104.22C162.729 104.991 162.729 104.991 162.729 104.991C162.729 104.991 162.729 104.991 162.729 104.991C162.729 104.991 162.729 104.991 162.729 104.991C162.729 104.991 162.729 104.991 162.73 104.991C162.73 104.992 162.732 104.993 162.734 104.995C162.738 104.998 162.744 105.003 162.752 105.01C162.768 105.024 162.793 105.045 162.825 105.072C162.889 105.126 162.981 105.205 163.092 105.303C163.315 105.499 163.609 105.765 163.9 106.051C164.196 106.342 164.468 106.632 164.659 106.88C164.755 107.004 164.813 107.095 164.843 107.152C164.884 107.23 164.836 107.174 164.836 107.03H166.836C166.836 106.694 166.71 106.407 166.616 106.226C166.511 106.025 166.376 105.831 166.241 105.656C165.969 105.304 165.624 104.941 165.302 104.625C164.976 104.304 164.653 104.012 164.413 103.801C164.292 103.695 164.191 103.608 164.12 103.548C164.085 103.517 164.056 103.494 164.037 103.477C164.027 103.469 164.019 103.462 164.014 103.458C164.011 103.455 164.009 103.454 164.007 103.452C164.006 103.452 164.006 103.451 164.005 103.451C164.005 103.451 164.005 103.45 164.005 103.45C164.005 103.45 164.004 103.45 164.004 103.45C164.004 103.45 164.004 103.45 163.367 104.22ZM164.836 107.03V108H166.836V107.03H164.836ZM165.836 109H169.836V107H165.836V109ZM170.73 108.447L171.73 106.447L169.941 105.553L168.941 107.553L170.73 108.447ZM169.941 106.447L170.941 108.447L172.73 107.553L171.73 105.553L169.941 106.447ZM171.836 109H172.836V107H171.836V109ZM173.836 108V107.03H171.836V108H173.836ZM173.836 107.03C173.836 107.066 173.846 106.944 173.992 106.6C174.116 106.307 174.288 105.965 174.47 105.628C174.65 105.294 174.831 104.981 174.968 104.75C175.037 104.635 175.093 104.542 175.133 104.477C175.152 104.445 175.168 104.421 175.178 104.404C175.183 104.396 175.187 104.39 175.189 104.386C175.19 104.384 175.191 104.382 175.192 104.382C175.192 104.381 175.192 104.381 175.192 104.381C175.192 104.381 175.192 104.381 175.192 104.381C175.192 104.381 175.192 104.381 175.192 104.381C175.192 104.381 175.192 104.381 174.344 103.851C173.496 103.321 173.496 103.321 173.496 103.321C173.496 103.321 173.496 103.321 173.496 103.321C173.496 103.321 173.496 103.321 173.496 103.321C173.496 103.322 173.495 103.322 173.495 103.323C173.494 103.325 173.493 103.327 173.491 103.329C173.488 103.335 173.483 103.342 173.477 103.352C173.465 103.371 173.448 103.399 173.426 103.434C173.383 103.505 173.322 103.606 173.249 103.729C173.103 103.975 172.907 104.313 172.71 104.678C172.515 105.04 172.309 105.445 172.15 105.82C172.013 106.144 171.836 106.611 171.836 107.03H173.836ZM175.205 104.36C175.403 104.026 175.559 103.613 175.667 103.226C175.774 102.839 175.854 102.401 175.854 102.007H173.854C173.854 102.161 173.817 102.41 173.74 102.691C173.662 102.971 173.564 103.206 173.484 103.341L175.205 104.36ZM175.854 102.007V97.9718H173.854V102.007H175.854ZM175.853 97.9516C175.824 96.4818 174.588 95.3545 173.139 95.3545V97.3545C173.565 97.3545 173.847 97.6752 173.854 97.992L175.853 97.9516ZM173.139 95.3545C172.164 95.3545 171.291 96.1198 171.291 97.1634H173.291C173.291 97.2317 173.26 97.2858 173.229 97.3152C173.199 97.3437 173.165 97.3545 173.139 97.3545V95.3545ZM171.291 97.1634V97.4866H173.291V97.1634H171.291ZM173.291 97.4866C173.291 95.9966 172.038 94.8693 170.595 94.8693V96.8693C171.025 96.8693 171.291 97.19 171.291 97.4866H173.291ZM170.595 94.8693C169.619 94.8693 168.746 95.6346 168.746 96.6782H170.746C170.746 96.7465 170.715 96.8005 170.685 96.8299C170.655 96.8585 170.621 96.8693 170.595 96.8693V94.8693ZM168.746 96.6782V97.0013H170.746V96.6782H168.746ZM170.746 97.0013C170.746 95.5113 169.494 94.3841 168.05 94.3841V96.3841C168.48 96.3841 168.746 96.7047 168.746 97.0013H170.746ZM168.05 94.3841C167.074 94.3841 166.201 95.1494 166.201 96.193H168.201C168.201 96.2613 168.171 96.3153 168.14 96.3447C168.11 96.3733 168.076 96.3841 168.05 96.3841V94.3841ZM166.201 96.193V96.5161H168.201V96.193H166.201ZM168.201 96.5161C168.201 96.3088 168.18 96.0809 168.107 95.8565L166.206 96.4795C166.198 96.4555 166.198 96.4444 166.199 96.4516C166.199 96.4587 166.201 96.4791 166.201 96.5161H168.201ZM168.155 96.106L167.896 91.9392L165.9 92.0632L166.158 96.23L168.155 96.106ZM167.896 91.9392C167.828 90.845 166.912 90 165.836 90V92C165.844 92 165.86 92.0035 165.877 92.0193C165.893 92.0344 165.899 92.0498 165.9 92.0632L167.896 91.9392ZM165.836 90C164.725 90 163.836 90.8977 163.836 91.9998H165.836V92V90ZM163.836 91.9998V96H165.836V91.9998H163.836ZM163.836 96V101H165.836V96H163.836ZM171.854 101H172.854V99H171.854V101ZM171.854 100V104H173.854V100H171.854ZM172.854 103H171.854V105H172.854V103ZM172.854 104V100H170.854V104H172.854ZM169.854 101H170.854V99H169.854V101ZM169.854 100V104H171.854V100H169.854ZM170.854 103H169.854V105H170.854V103ZM170.854 104V100H168.854V104H170.854ZM167.854 101H168.854V99H167.854V101ZM167.854 100V104H169.854V100H167.854ZM168.854 103H167.854V105H168.854V103ZM168.854 104V100H166.854V104H168.854Z" fill="black" fill-opacity="0.8" mask="url(#path-3-outside-1_1088_578)"/>
</g>
<defs>
<filter id="filter0_d_1088_578" x="157" y="88" width="21.8535" height="25" filterUnits="userSpaceOnUse" color-interpolation-filters="sRGB">
<feFlood flood-opacity="0" result="BackgroundImageFix"/>
<feColorMatrix in="SourceAlpha" type="matrix" values="0 0 0 0 0 0 0 0 0 0 0 0 0 0 0 0 0 0 127 0" result="hardAlpha"/>
<feOffset dy="1"/>
<feGaussianBlur stdDeviation="1.5"/>
<feColorMatrix type="matrix" values="0 0 0 0 0 0 0 0 0 0 0 0 0 0 0 0 0 0 0.2 0"/>
<feBlend mode="normal" in2="BackgroundImageFix" result="effect1_dropShadow_1088_578"/>
<feBlend mode="normal" in="SourceGraphic" in2="effect1_dropShadow_1088_578" result="shape"/>
</filter>
</defs>
</svg>
