<svg width="253" height="171" viewBox="0 0 253 171" fill="none" xmlns="http://www.w3.org/2000/svg">
<rect width="253" height="171" fill="#F3F0FF"/>
<path d="M103.5 85.5C103.5 72.7975 113.797 62.5 126.5 62.5C139.203 62.5 149.5 72.7975 149.5 85.5C149.5 98.2025 139.203 108.5 126.5 108.5C113.797 108.5 103.5 98.2025 103.5 85.5Z" fill="#F3F0FF"/>
<path d="M103.5 85.5C103.5 72.7975 113.797 62.5 126.5 62.5C139.203 62.5 149.5 72.7975 149.5 85.5C149.5 98.2025 139.203 108.5 126.5 108.5C113.797 108.5 103.5 98.2025 103.5 85.5Z" stroke="#e4ddff"/>
<path d="M119 82C119 79.7909 120.791 78 123 78H130C132.209 78 134 79.7909 134 82V89C134 91.2091 132.209 93 130 93H123C120.791 93 119 91.2091 119 89V82Z" fill="#601DD3"/>
</svg>
