<svg width="253" height="171" viewBox="0 0 253 171" fill="none" xmlns="http://www.w3.org/2000/svg">
<rect width="253" height="171" fill="#F4EFFC"/>
<path d="M88.25 82C88.25 79.7909 90.0409 78 92.25 78H99.25C101.459 78 103.25 79.7909 103.25 82V89C103.25 91.2091 101.459 93 99.25 93H92.25C90.0409 93 88.25 91.2091 88.25 89V82Z" fill="#5D21D2"/>
<path d="M120.838 93.25C120.102 93.25 119.618 92.4817 119.936 91.8179L125.813 79.5543C126.169 78.811 127.221 78.7935 127.601 79.5244L133.989 91.7881C134.335 92.4538 133.852 93.25 133.102 93.25H120.838Z" fill="#5D21D2"/>
<path d="M150.75 85.5C150.75 81.634 153.884 78.5 157.75 78.5C161.616 78.5 164.75 81.634 164.75 85.5C164.75 89.366 161.616 92.5 157.75 92.5C153.884 92.5 150.75 89.366 150.75 85.5Z" fill="#5D21D2"/>
</svg>
