<svg width="244" height="175" viewBox="0 0 244 175" fill="none" xmlns="http://www.w3.org/2000/svg">
<rect width="244" height="175" fill="#F4EFFC"/>
<path d="M106 75.5C106 73.2909 107.791 71.5 110 71.5H134C136.209 71.5 138 73.2909 138 75.5V99.5C138 101.709 136.209 103.5 134 103.5H110C107.791 103.5 106 101.709 106 99.5V75.5Z" fill="#5D21D2"/>
<path d="M114 87.5C114 83.0817 117.582 79.5 122 79.5C126.418 79.5 130 83.0817 130 87.5C130 91.9183 126.418 95.5 122 95.5C117.582 95.5 114 91.9183 114 87.5Z" fill="#F9F9FA"/>
<g filter="url(#filter0_d_1088_659)">
<mask id="path-3-outside-1_1088_659" maskUnits="userSpaceOnUse" x="129" y="102" width="16" height="19" fill="black">
<rect fill="white" x="129" y="102" width="16" height="19"/>
<path fill-rule="evenodd" clip-rule="evenodd" d="M133.836 113L132.949 111.645C132.344 110.72 131.054 110.383 130.068 110.89L130.298 110.772C130.053 110.898 129.935 111.211 130.036 111.472L131.263 114.647C131.458 115.151 131.955 115.863 132.367 116.22C132.367 116.22 134.836 118.264 134.836 119.03V120H138.836L139.836 118L140.836 120H141.836V119.03C141.836 118.264 143.344 115.851 143.344 115.851C143.622 115.382 143.854 114.555 143.854 114.007V109.972C143.836 109.078 143.076 108.355 142.139 108.355C141.671 108.355 141.291 108.717 141.291 109.163V109.487C141.291 108.593 140.532 107.869 139.595 107.869C139.126 107.869 138.746 108.231 138.746 108.678V109.001C138.746 108.108 137.987 107.384 137.05 107.384C136.581 107.384 136.201 107.746 136.201 108.193V108.516C136.201 108.373 136.186 108.258 136.157 108.168L135.898 104.001C135.863 103.438 135.388 103 134.836 103C134.279 103 133.836 103.448 133.836 104V108V113ZM140.854 112H141.854V116H140.854V112ZM138.854 112H139.854V116H138.854V112ZM136.854 112H137.854V116H136.854V112Z"/>
</mask>
<path fill-rule="evenodd" clip-rule="evenodd" d="M133.836 113L132.949 111.645C132.344 110.72 131.054 110.383 130.068 110.89L130.298 110.772C130.053 110.898 129.935 111.211 130.036 111.472L131.263 114.647C131.458 115.151 131.955 115.863 132.367 116.22C132.367 116.22 134.836 118.264 134.836 119.03V120H138.836L139.836 118L140.836 120H141.836V119.03C141.836 118.264 143.344 115.851 143.344 115.851C143.622 115.382 143.854 114.555 143.854 114.007V109.972C143.836 109.078 143.076 108.355 142.139 108.355C141.671 108.355 141.291 108.717 141.291 109.163V109.487C141.291 108.593 140.532 107.869 139.595 107.869C139.126 107.869 138.746 108.231 138.746 108.678V109.001C138.746 108.108 137.987 107.384 137.05 107.384C136.581 107.384 136.201 107.746 136.201 108.193V108.516C136.201 108.373 136.186 108.258 136.157 108.168L135.898 104.001C135.863 103.438 135.388 103 134.836 103C134.279 103 133.836 103.448 133.836 104V108V113ZM140.854 112H141.854V116H140.854V112ZM138.854 112H139.854V116H138.854V112ZM136.854 112H137.854V116H136.854V112Z" fill="white"/>
<path d="M133.836 113L132.999 113.548L134.836 116.354V113H133.836ZM132.949 111.645L133.786 111.098L132.949 111.645ZM130.036 111.472L129.103 111.833L130.036 111.472ZM131.263 114.647L132.196 114.287L131.263 114.647ZM132.367 116.22L131.711 116.975L131.72 116.983L131.729 116.991L132.367 116.22ZM134.836 120H133.836V121H134.836V120ZM138.836 120V121H139.454L139.73 120.447L138.836 120ZM139.836 118L140.73 117.553L139.836 115.764L138.941 117.553L139.836 118ZM140.836 120L139.941 120.447L140.218 121H140.836V120ZM141.836 120V121H142.836V120H141.836ZM143.344 115.851L144.192 116.381L144.199 116.371L144.205 116.36L143.344 115.851ZM143.854 109.972H144.854V109.962L144.853 109.952L143.854 109.972ZM136.157 108.168L135.158 108.23L135.166 108.358L135.206 108.479L136.157 108.168ZM135.898 104.001L134.9 104.063V104.063L135.898 104.001ZM133.836 104H132.836H133.836ZM141.854 112H142.854V111H141.854V112ZM141.854 116V117H142.854V116H141.854ZM140.854 116H139.854V117H140.854V116ZM139.854 112H140.854V111H139.854V112ZM139.854 116V117H140.854V116H139.854ZM138.854 116H137.854V117H138.854V116ZM137.854 112H138.854V111H137.854V112ZM137.854 116V117H138.854V116H137.854ZM136.854 116H135.854V117H136.854V116ZM134.672 112.452L133.786 111.098L132.112 112.193L132.999 113.548L134.672 112.452ZM133.786 111.098C132.898 109.742 131.049 109.261 129.61 110.001L130.525 111.779C131.059 111.505 131.789 111.699 132.112 112.193L133.786 111.098ZM130.525 111.779L130.755 111.661L129.84 109.882L129.61 110.001L130.525 111.779ZM129.84 109.882C129.131 110.247 128.822 111.105 129.103 111.833L130.969 111.112C131.014 111.23 131.005 111.34 130.974 111.421C130.944 111.503 130.876 111.599 130.755 111.661L129.84 109.882ZM129.103 111.833L130.331 115.008L132.196 114.287L130.969 111.112L129.103 111.833ZM130.331 115.008C130.583 115.662 131.175 116.51 131.711 116.975L133.022 115.465C132.735 115.216 132.333 114.64 132.196 114.287L130.331 115.008ZM132.367 116.22C131.729 116.991 131.729 116.991 131.729 116.991C131.729 116.991 131.729 116.991 131.729 116.991C131.729 116.991 131.729 116.991 131.729 116.991C131.729 116.991 131.729 116.991 131.73 116.991C131.73 116.992 131.732 116.993 131.734 116.995C131.738 116.998 131.744 117.003 131.752 117.01C131.768 117.024 131.793 117.045 131.825 117.072C131.889 117.126 131.981 117.205 132.092 117.303C132.315 117.499 132.609 117.765 132.9 118.051C133.196 118.342 133.468 118.632 133.659 118.88C133.755 119.004 133.813 119.095 133.843 119.152C133.884 119.23 133.836 119.174 133.836 119.03H135.836C135.836 118.694 135.71 118.407 135.616 118.226C135.511 118.025 135.376 117.831 135.241 117.656C134.969 117.304 134.624 116.941 134.302 116.625C133.976 116.304 133.653 116.012 133.413 115.801C133.292 115.695 133.191 115.608 133.12 115.548C133.085 115.517 133.056 115.494 133.037 115.477C133.027 115.469 133.019 115.462 133.014 115.458C133.011 115.455 133.009 115.454 133.007 115.452C133.006 115.452 133.006 115.451 133.005 115.451C133.005 115.451 133.005 115.45 133.005 115.45C133.005 115.45 133.004 115.45 133.004 115.45C133.004 115.45 133.004 115.45 132.367 116.22ZM133.836 119.03V120H135.836V119.03H133.836ZM134.836 121H138.836V119H134.836V121ZM139.73 120.447L140.73 118.447L138.941 117.553L137.941 119.553L139.73 120.447ZM138.941 118.447L139.941 120.447L141.73 119.553L140.73 117.553L138.941 118.447ZM140.836 121H141.836V119H140.836V121ZM142.836 120V119.03H140.836V120H142.836ZM142.836 119.03C142.836 119.066 142.846 118.944 142.992 118.6C143.116 118.307 143.288 117.965 143.47 117.628C143.65 117.294 143.831 116.981 143.968 116.75C144.037 116.635 144.093 116.542 144.133 116.477C144.152 116.445 144.168 116.421 144.178 116.404C144.183 116.396 144.187 116.39 144.189 116.386C144.19 116.384 144.191 116.382 144.192 116.382C144.192 116.381 144.192 116.381 144.192 116.381C144.192 116.381 144.192 116.381 144.192 116.381C144.192 116.381 144.192 116.381 144.192 116.381C144.192 116.381 144.192 116.381 143.344 115.851C142.496 115.321 142.496 115.321 142.496 115.321C142.496 115.321 142.496 115.321 142.496 115.321C142.496 115.321 142.496 115.321 142.496 115.321C142.496 115.322 142.495 115.322 142.495 115.323C142.494 115.325 142.493 115.327 142.491 115.329C142.488 115.335 142.483 115.342 142.477 115.352C142.465 115.371 142.448 115.399 142.426 115.434C142.383 115.505 142.322 115.606 142.249 115.729C142.103 115.975 141.907 116.313 141.71 116.678C141.515 117.04 141.309 117.445 141.15 117.82C141.013 118.144 140.836 118.611 140.836 119.03H142.836ZM144.205 116.36C144.403 116.026 144.559 115.613 144.667 115.226C144.774 114.839 144.854 114.401 144.854 114.007H142.854C142.854 114.161 142.817 114.41 142.74 114.691C142.662 114.971 142.564 115.206 142.484 115.341L144.205 116.36ZM144.854 114.007V109.972H142.854V114.007H144.854ZM144.853 109.952C144.824 108.482 143.588 107.355 142.139 107.355V109.355C142.565 109.355 142.847 109.675 142.854 109.992L144.853 109.952ZM142.139 107.355C141.164 107.355 140.291 108.12 140.291 109.163H142.291C142.291 109.232 142.26 109.286 142.229 109.315C142.199 109.344 142.165 109.355 142.139 109.355V107.355ZM140.291 109.163V109.487H142.291V109.163H140.291ZM142.291 109.487C142.291 107.997 141.038 106.869 139.595 106.869V108.869C140.025 108.869 140.291 109.19 140.291 109.487H142.291ZM139.595 106.869C138.619 106.869 137.746 107.635 137.746 108.678H139.746C139.746 108.746 139.715 108.801 139.685 108.83C139.655 108.859 139.621 108.869 139.595 108.869V106.869ZM137.746 108.678V109.001H139.746V108.678H137.746ZM139.746 109.001C139.746 107.511 138.494 106.384 137.05 106.384V108.384C137.48 108.384 137.746 108.705 137.746 109.001H139.746ZM137.05 106.384C136.074 106.384 135.201 107.149 135.201 108.193H137.201C137.201 108.261 137.171 108.315 137.14 108.345C137.11 108.373 137.076 108.384 137.05 108.384V106.384ZM135.201 108.193V108.516H137.201V108.193H135.201ZM137.201 108.516C137.201 108.309 137.18 108.081 137.107 107.857L135.206 108.479C135.198 108.456 135.198 108.444 135.199 108.452C135.199 108.459 135.201 108.479 135.201 108.516H137.201ZM137.155 108.106L136.896 103.939L134.9 104.063L135.158 108.23L137.155 108.106ZM136.896 103.939C136.828 102.845 135.912 102 134.836 102V104C134.844 104 134.86 104.003 134.877 104.019C134.893 104.034 134.899 104.05 134.9 104.063L136.896 103.939ZM134.836 102C133.725 102 132.836 102.898 132.836 104H134.836V104V102ZM132.836 104V108H134.836V104H132.836ZM132.836 108V113H134.836V108H132.836ZM140.854 113H141.854V111H140.854V113ZM140.854 112V116H142.854V112H140.854ZM141.854 115H140.854V117H141.854V115ZM141.854 116V112H139.854V116H141.854ZM138.854 113H139.854V111H138.854V113ZM138.854 112V116H140.854V112H138.854ZM139.854 115H138.854V117H139.854V115ZM139.854 116V112H137.854V116H139.854ZM136.854 113H137.854V111H136.854V113ZM136.854 112V116H138.854V112H136.854ZM137.854 115H136.854V117H137.854V115ZM137.854 116V112H135.854V116H137.854Z" fill="black" fill-opacity="0.8" mask="url(#path-3-outside-1_1088_659)"/>
</g>
<defs>
<filter id="filter0_d_1088_659" x="126" y="100" width="21.8535" height="25" filterUnits="userSpaceOnUse" color-interpolation-filters="sRGB">
<feFlood flood-opacity="0" result="BackgroundImageFix"/>
<feColorMatrix in="SourceAlpha" type="matrix" values="0 0 0 0 0 0 0 0 0 0 0 0 0 0 0 0 0 0 127 0" result="hardAlpha"/>
<feOffset dy="1"/>
<feGaussianBlur stdDeviation="1.5"/>
<feColorMatrix type="matrix" values="0 0 0 0 0 0 0 0 0 0 0 0 0 0 0 0 0 0 0.2 0"/>
<feBlend mode="normal" in2="BackgroundImageFix" result="effect1_dropShadow_1088_659"/>
<feBlend mode="normal" in="SourceGraphic" in2="effect1_dropShadow_1088_659" result="shape"/>
</filter>
</defs>
</svg>
