<svg width="244" height="175" viewBox="0 0 244 175" fill="none" xmlns="http://www.w3.org/2000/svg">
<rect width="244" height="175" fill="#F3F0FF"/>
<path d="M61.5 57.5C61.5 55.2909 63.2909 53.5 65.5 53.5H178.5C180.709 53.5 182.5 55.2909 182.5 57.5V77.5C182.5 79.7091 180.709 81.5 178.5 81.5H65.5C63.2909 81.5 61.5 79.7091 61.5 77.5V57.5Z" fill="#e4ddff"/>
<rect x="65.5" y="57.5" width="113" height="8" rx="4" fill="#F9F9FA"/>
<rect x="65.5" y="69.5" width="63" height="8" rx="4" fill="#F9F9FA"/>
<path d="M106 105.5C106 96.6634 113.163 89.5 122 89.5C130.837 89.5 138 96.6634 138 105.5C138 114.337 130.837 121.5 122 121.5C113.163 121.5 106 114.337 106 105.5Z" fill="#4719A6"/>
<circle cx="122" cy="99.5" r="2" fill="#F3F0FF"/>
<rect x="120" y="103.5" width="4" height="10" rx="2" fill="#F3F0FF"/>
<g filter="url(#filter0_d_1167_3346)">
<mask id="path-7-outside-1_1167_3346" maskUnits="userSpaceOnUse" x="131" y="119" width="16" height="19" fill="black">
<rect fill="white" x="131" y="119" width="16" height="19"/>
<path fill-rule="evenodd" clip-rule="evenodd" d="M135.836 130L134.949 128.645C134.344 127.72 133.054 127.383 132.068 127.89L132.298 127.772C132.053 127.898 131.935 128.211 132.036 128.472L133.263 131.647C133.458 132.151 133.955 132.863 134.367 133.22C134.367 133.22 136.836 135.264 136.836 136.03V137H140.836L141.836 135L142.836 137H143.836V136.03C143.836 135.264 145.344 132.851 145.344 132.851C145.622 132.382 145.854 131.555 145.854 131.007V126.972C145.836 126.078 145.076 125.355 144.139 125.355C143.671 125.355 143.291 125.717 143.291 126.163V126.487C143.291 125.593 142.532 124.869 141.595 124.869C141.126 124.869 140.746 125.231 140.746 125.678V126.001C140.746 125.108 139.987 124.384 139.05 124.384C138.581 124.384 138.201 124.746 138.201 125.193V125.516C138.201 125.373 138.186 125.258 138.157 125.168L137.898 121.001C137.863 120.438 137.388 120 136.836 120C136.279 120 135.836 120.448 135.836 121V125V130ZM142.854 129H143.854V133H142.854V129ZM140.854 129H141.854V133H140.854V129ZM138.854 129H139.854V133H138.854V129Z"/>
</mask>
<path fill-rule="evenodd" clip-rule="evenodd" d="M135.836 130L134.949 128.645C134.344 127.72 133.054 127.383 132.068 127.89L132.298 127.772C132.053 127.898 131.935 128.211 132.036 128.472L133.263 131.647C133.458 132.151 133.955 132.863 134.367 133.22C134.367 133.22 136.836 135.264 136.836 136.03V137H140.836L141.836 135L142.836 137H143.836V136.03C143.836 135.264 145.344 132.851 145.344 132.851C145.622 132.382 145.854 131.555 145.854 131.007V126.972C145.836 126.078 145.076 125.355 144.139 125.355C143.671 125.355 143.291 125.717 143.291 126.163V126.487C143.291 125.593 142.532 124.869 141.595 124.869C141.126 124.869 140.746 125.231 140.746 125.678V126.001C140.746 125.108 139.987 124.384 139.05 124.384C138.581 124.384 138.201 124.746 138.201 125.193V125.516C138.201 125.373 138.186 125.258 138.157 125.168L137.898 121.001C137.863 120.438 137.388 120 136.836 120C136.279 120 135.836 120.448 135.836 121V125V130ZM142.854 129H143.854V133H142.854V129ZM140.854 129H141.854V133H140.854V129ZM138.854 129H139.854V133H138.854V129Z" fill="white"/>
<path d="M135.836 130L134.999 130.548L136.836 133.354V130H135.836ZM134.949 128.645L135.786 128.098L134.949 128.645ZM132.036 128.472L131.103 128.833L132.036 128.472ZM133.263 131.647L134.196 131.287L133.263 131.647ZM134.367 133.22L133.711 133.975L133.72 133.983L133.729 133.991L134.367 133.22ZM136.836 137H135.836V138H136.836V137ZM140.836 137V138H141.454L141.73 137.447L140.836 137ZM141.836 135L142.73 134.553L141.836 132.764L140.941 134.553L141.836 135ZM142.836 137L141.941 137.447L142.218 138H142.836V137ZM143.836 137V138H144.836V137H143.836ZM145.344 132.851L146.192 133.381L146.199 133.371L146.205 133.36L145.344 132.851ZM145.854 126.972H146.854V126.962L146.853 126.952L145.854 126.972ZM138.157 125.168L137.158 125.23L137.166 125.358L137.206 125.479L138.157 125.168ZM137.898 121.001L136.9 121.063V121.063L137.898 121.001ZM135.836 121H134.836H135.836ZM143.854 129H144.854V128H143.854V129ZM143.854 133V134H144.854V133H143.854ZM142.854 133H141.854V134H142.854V133ZM141.854 129H142.854V128H141.854V129ZM141.854 133V134H142.854V133H141.854ZM140.854 133H139.854V134H140.854V133ZM139.854 129H140.854V128H139.854V129ZM139.854 133V134H140.854V133H139.854ZM138.854 133H137.854V134H138.854V133ZM136.672 129.452L135.786 128.098L134.112 129.193L134.999 130.548L136.672 129.452ZM135.786 128.098C134.898 126.742 133.049 126.261 131.61 127.001L132.525 128.779C133.059 128.505 133.789 128.699 134.112 129.193L135.786 128.098ZM132.525 128.779L132.755 128.661L131.84 126.882L131.61 127.001L132.525 128.779ZM131.84 126.882C131.131 127.247 130.822 128.105 131.103 128.833L132.969 128.112C133.014 128.23 133.005 128.34 132.974 128.421C132.944 128.503 132.876 128.599 132.755 128.661L131.84 126.882ZM131.103 128.833L132.331 132.008L134.196 131.287L132.969 128.112L131.103 128.833ZM132.331 132.008C132.583 132.662 133.175 133.51 133.711 133.975L135.022 132.465C134.735 132.216 134.333 131.64 134.196 131.287L132.331 132.008ZM134.367 133.22C133.729 133.991 133.729 133.991 133.729 133.991C133.729 133.991 133.729 133.991 133.729 133.991C133.729 133.991 133.729 133.991 133.729 133.991C133.729 133.991 133.729 133.991 133.73 133.991C133.73 133.992 133.732 133.993 133.734 133.995C133.738 133.998 133.744 134.003 133.752 134.01C133.768 134.024 133.793 134.045 133.825 134.072C133.889 134.126 133.981 134.205 134.092 134.303C134.315 134.499 134.609 134.765 134.9 135.051C135.196 135.342 135.468 135.632 135.659 135.88C135.755 136.004 135.813 136.095 135.843 136.152C135.884 136.23 135.836 136.174 135.836 136.03H137.836C137.836 135.694 137.71 135.407 137.616 135.226C137.511 135.025 137.376 134.831 137.241 134.656C136.969 134.304 136.624 133.941 136.302 133.625C135.976 133.304 135.653 133.012 135.413 132.801C135.292 132.695 135.191 132.608 135.12 132.548C135.085 132.517 135.056 132.494 135.037 132.477C135.027 132.469 135.019 132.462 135.014 132.458C135.011 132.455 135.009 132.454 135.007 132.452C135.006 132.452 135.006 132.451 135.005 132.451C135.005 132.451 135.005 132.45 135.005 132.45C135.005 132.45 135.004 132.45 135.004 132.45C135.004 132.45 135.004 132.45 134.367 133.22ZM135.836 136.03V137H137.836V136.03H135.836ZM136.836 138H140.836V136H136.836V138ZM141.73 137.447L142.73 135.447L140.941 134.553L139.941 136.553L141.73 137.447ZM140.941 135.447L141.941 137.447L143.73 136.553L142.73 134.553L140.941 135.447ZM142.836 138H143.836V136H142.836V138ZM144.836 137V136.03H142.836V137H144.836ZM144.836 136.03C144.836 136.066 144.846 135.944 144.992 135.6C145.116 135.307 145.288 134.965 145.47 134.628C145.65 134.294 145.831 133.981 145.968 133.75C146.037 133.635 146.093 133.542 146.133 133.477C146.152 133.445 146.168 133.421 146.178 133.404C146.183 133.396 146.187 133.39 146.189 133.386C146.19 133.384 146.191 133.382 146.192 133.382C146.192 133.381 146.192 133.381 146.192 133.381C146.192 133.381 146.192 133.381 146.192 133.381C146.192 133.381 146.192 133.381 146.192 133.381C146.192 133.381 146.192 133.381 145.344 132.851C144.496 132.321 144.496 132.321 144.496 132.321C144.496 132.321 144.496 132.321 144.496 132.321C144.496 132.321 144.496 132.321 144.496 132.321C144.496 132.322 144.495 132.322 144.495 132.323C144.494 132.325 144.493 132.327 144.491 132.329C144.488 132.335 144.483 132.342 144.477 132.352C144.465 132.371 144.448 132.399 144.426 132.434C144.383 132.505 144.322 132.606 144.249 132.729C144.103 132.975 143.907 133.313 143.71 133.678C143.515 134.04 143.309 134.445 143.15 134.82C143.013 135.144 142.836 135.611 142.836 136.03H144.836ZM146.205 133.36C146.403 133.026 146.559 132.613 146.667 132.226C146.774 131.839 146.854 131.401 146.854 131.007H144.854C144.854 131.161 144.817 131.41 144.74 131.691C144.662 131.971 144.564 132.206 144.484 132.341L146.205 133.36ZM146.854 131.007V126.972H144.854V131.007H146.854ZM146.853 126.952C146.824 125.482 145.588 124.355 144.139 124.355V126.355C144.565 126.355 144.847 126.675 144.854 126.992L146.853 126.952ZM144.139 124.355C143.164 124.355 142.291 125.12 142.291 126.163H144.291C144.291 126.232 144.26 126.286 144.229 126.315C144.199 126.344 144.165 126.355 144.139 126.355V124.355ZM142.291 126.163V126.487H144.291V126.163H142.291ZM144.291 126.487C144.291 124.997 143.038 123.869 141.595 123.869V125.869C142.025 125.869 142.291 126.19 142.291 126.487H144.291ZM141.595 123.869C140.619 123.869 139.746 124.635 139.746 125.678H141.746C141.746 125.746 141.715 125.801 141.685 125.83C141.655 125.859 141.621 125.869 141.595 125.869V123.869ZM139.746 125.678V126.001H141.746V125.678H139.746ZM141.746 126.001C141.746 124.511 140.494 123.384 139.05 123.384V125.384C139.48 125.384 139.746 125.705 139.746 126.001H141.746ZM139.05 123.384C138.074 123.384 137.201 124.149 137.201 125.193H139.201C139.201 125.261 139.171 125.315 139.14 125.345C139.11 125.373 139.076 125.384 139.05 125.384V123.384ZM137.201 125.193V125.516H139.201V125.193H137.201ZM139.201 125.516C139.201 125.309 139.18 125.081 139.107 124.857L137.206 125.479C137.198 125.456 137.198 125.444 137.199 125.452C137.199 125.459 137.201 125.479 137.201 125.516H139.201ZM139.155 125.106L138.896 120.939L136.9 121.063L137.158 125.23L139.155 125.106ZM138.896 120.939C138.828 119.845 137.912 119 136.836 119V121C136.844 121 136.86 121.003 136.877 121.019C136.893 121.034 136.899 121.05 136.9 121.063L138.896 120.939ZM136.836 119C135.725 119 134.836 119.898 134.836 121H136.836V121V119ZM134.836 121V125H136.836V121H134.836ZM134.836 125V130H136.836V125H134.836ZM142.854 130H143.854V128H142.854V130ZM142.854 129V133H144.854V129H142.854ZM143.854 132H142.854V134H143.854V132ZM143.854 133V129H141.854V133H143.854ZM140.854 130H141.854V128H140.854V130ZM140.854 129V133H142.854V129H140.854ZM141.854 132H140.854V134H141.854V132ZM141.854 133V129H139.854V133H141.854ZM138.854 130H139.854V128H138.854V130ZM138.854 129V133H140.854V129H138.854ZM139.854 132H138.854V134H139.854V132ZM139.854 133V129H137.854V133H139.854Z" fill="black" fill-opacity="0.8" mask="url(#path-7-outside-1_1167_3346)"/>
</g>
<defs>
<filter id="filter0_d_1167_3346" x="128" y="117" width="21.8535" height="25" filterUnits="userSpaceOnUse" color-interpolation-filters="sRGB">
<feFlood flood-opacity="0" result="BackgroundImageFix"/>
<feColorMatrix in="SourceAlpha" type="matrix" values="0 0 0 0 0 0 0 0 0 0 0 0 0 0 0 0 0 0 127 0" result="hardAlpha"/>
<feOffset dy="1"/>
<feGaussianBlur stdDeviation="1.5"/>
<feColorMatrix type="matrix" values="0 0 0 0 0 0 0 0 0 0 0 0 0 0 0 0 0 0 0.2 0"/>
<feBlend mode="normal" in2="BackgroundImageFix" result="effect1_dropShadow_1167_3346"/>
<feBlend mode="normal" in="SourceGraphic" in2="effect1_dropShadow_1167_3346" result="shape"/>
</filter>
</defs>
</svg>
