<svg width="244" height="175" viewBox="0 0 244 175" fill="none" xmlns="http://www.w3.org/2000/svg">
<rect width="244" height="175" fill="#F3F0FF"/>
<path d="M70 83.5C70 81.2909 71.7909 79.5 74 79.5H170C172.209 79.5 174 81.2909 174 83.5V87.5C174 89.7091 172.209 91.5 170 91.5H74C71.7909 91.5 70 89.7091 70 87.5V83.5Z" fill="#601DD3"/>
<path d="M71 95.5H173" stroke="#601DD3" stroke-width="2" stroke-linecap="round"/>
<g filter="url(#filter0_d_1088_688)">
<mask id="path-3-outside-1_1088_688" maskUnits="userSpaceOnUse" x="147" y="87" width="16" height="19" fill="black">
<rect fill="white" x="147" y="87" width="16" height="19"/>
<path fill-rule="evenodd" clip-rule="evenodd" d="M151.836 98L150.949 96.6453C150.344 95.7203 149.054 95.3829 148.068 95.89L148.298 95.7718C148.053 95.8977 147.935 96.2114 148.036 96.4721L149.263 99.6474C149.458 100.151 149.955 100.863 150.367 101.22C150.367 101.22 152.836 103.264 152.836 104.03V105H156.836L157.836 103L158.836 105H159.836V104.03C159.836 103.264 161.344 100.851 161.344 100.851C161.622 100.382 161.854 99.5552 161.854 99.0066V94.9718C161.836 94.0785 161.076 93.3545 160.139 93.3545C159.671 93.3545 159.291 93.7165 159.291 94.1634V94.4866C159.291 93.5933 158.532 92.8693 157.595 92.8693C157.126 92.8693 156.746 93.2313 156.746 93.6782V94.0013C156.746 93.108 155.987 92.3841 155.05 92.3841C154.581 92.3841 154.201 92.7461 154.201 93.193V93.5161C154.201 93.3726 154.186 93.2584 154.157 93.168L153.898 89.0012C153.863 88.4378 153.388 88 152.836 88C152.279 88 151.836 88.4476 151.836 88.9998V93V98ZM158.854 97H159.854V101H158.854V97ZM156.854 97H157.854V101H156.854V97ZM154.854 97H155.854V101H154.854V97Z"/>
</mask>
<path fill-rule="evenodd" clip-rule="evenodd" d="M151.836 98L150.949 96.6453C150.344 95.7203 149.054 95.3829 148.068 95.89L148.298 95.7718C148.053 95.8977 147.935 96.2114 148.036 96.4721L149.263 99.6474C149.458 100.151 149.955 100.863 150.367 101.22C150.367 101.22 152.836 103.264 152.836 104.03V105H156.836L157.836 103L158.836 105H159.836V104.03C159.836 103.264 161.344 100.851 161.344 100.851C161.622 100.382 161.854 99.5552 161.854 99.0066V94.9718C161.836 94.0785 161.076 93.3545 160.139 93.3545C159.671 93.3545 159.291 93.7165 159.291 94.1634V94.4866C159.291 93.5933 158.532 92.8693 157.595 92.8693C157.126 92.8693 156.746 93.2313 156.746 93.6782V94.0013C156.746 93.108 155.987 92.3841 155.05 92.3841C154.581 92.3841 154.201 92.7461 154.201 93.193V93.5161C154.201 93.3726 154.186 93.2584 154.157 93.168L153.898 89.0012C153.863 88.4378 153.388 88 152.836 88C152.279 88 151.836 88.4476 151.836 88.9998V93V98ZM158.854 97H159.854V101H158.854V97ZM156.854 97H157.854V101H156.854V97ZM154.854 97H155.854V101H154.854V97Z" fill="white"/>
<path d="M151.836 98L150.999 98.5476L152.836 101.354V98H151.836ZM150.949 96.6453L151.786 96.0977L150.949 96.6453ZM148.036 96.4721L147.103 96.8327L148.036 96.4721ZM149.263 99.6474L150.196 99.2869L149.263 99.6474ZM150.367 101.22L149.711 101.975L149.72 101.983L149.729 101.991L150.367 101.22ZM152.836 105H151.836V106H152.836V105ZM156.836 105V106H157.454L157.73 105.447L156.836 105ZM157.836 103L158.73 102.553L157.836 100.764L156.941 102.553L157.836 103ZM158.836 105L157.941 105.447L158.218 106H158.836V105ZM159.836 105V106H160.836V105H159.836ZM161.344 100.851L162.192 101.381L162.199 101.371L162.205 101.36L161.344 100.851ZM161.854 94.9718H162.854V94.9617L162.853 94.9516L161.854 94.9718ZM154.157 93.168L153.158 93.23L153.166 93.3578L153.206 93.4795L154.157 93.168ZM153.898 89.0012L152.9 89.0632V89.0632L153.898 89.0012ZM151.836 88.9998H150.836H151.836ZM159.854 97H160.854V96H159.854V97ZM159.854 101V102H160.854V101H159.854ZM158.854 101H157.854V102H158.854V101ZM157.854 97H158.854V96H157.854V97ZM157.854 101V102H158.854V101H157.854ZM156.854 101H155.854V102H156.854V101ZM155.854 97H156.854V96H155.854V97ZM155.854 101V102H156.854V101H155.854ZM154.854 101H153.854V102H154.854V101ZM152.672 97.4524L151.786 96.0977L150.112 97.193L150.999 98.5476L152.672 97.4524ZM151.786 96.0977C150.898 94.7415 149.049 94.2611 147.61 95.0006L148.525 96.7793C149.059 96.5047 149.789 96.6992 150.112 97.193L151.786 96.0977ZM148.525 96.7793L148.755 96.6612L147.84 94.8825L147.61 95.0006L148.525 96.7793ZM147.84 94.8825C147.131 95.2471 146.822 96.1052 147.103 96.8327L148.969 96.1116C149.014 96.2295 149.005 96.3396 148.974 96.4213C148.944 96.5027 148.876 96.5986 148.755 96.6612L147.84 94.8825ZM147.103 96.8327L148.331 100.008L150.196 99.2869L148.969 96.1116L147.103 96.8327ZM148.331 100.008C148.583 100.662 149.175 101.51 149.711 101.975L151.022 100.465C150.735 100.216 150.333 99.6398 150.196 99.2869L148.331 100.008ZM150.367 101.22C149.729 101.991 149.729 101.991 149.729 101.991C149.729 101.991 149.729 101.991 149.729 101.991C149.729 101.991 149.729 101.991 149.729 101.991C149.729 101.991 149.729 101.991 149.73 101.991C149.73 101.992 149.732 101.993 149.734 101.995C149.738 101.998 149.744 102.003 149.752 102.01C149.768 102.024 149.793 102.045 149.825 102.072C149.889 102.126 149.981 102.205 150.092 102.303C150.315 102.499 150.609 102.765 150.9 103.051C151.196 103.342 151.468 103.632 151.659 103.88C151.755 104.004 151.813 104.095 151.843 104.152C151.884 104.23 151.836 104.174 151.836 104.03H153.836C153.836 103.694 153.71 103.407 153.616 103.226C153.511 103.025 153.376 102.831 153.241 102.656C152.969 102.304 152.624 101.941 152.302 101.625C151.976 101.304 151.653 101.012 151.413 100.801C151.292 100.695 151.191 100.608 151.12 100.548C151.085 100.517 151.056 100.494 151.037 100.477C151.027 100.469 151.019 100.462 151.014 100.458C151.011 100.455 151.009 100.454 151.007 100.452C151.006 100.452 151.006 100.451 151.005 100.451C151.005 100.451 151.005 100.45 151.005 100.45C151.005 100.45 151.004 100.45 151.004 100.45C151.004 100.45 151.004 100.45 150.367 101.22ZM151.836 104.03V105H153.836V104.03H151.836ZM152.836 106H156.836V104H152.836V106ZM157.73 105.447L158.73 103.447L156.941 102.553L155.941 104.553L157.73 105.447ZM156.941 103.447L157.941 105.447L159.73 104.553L158.73 102.553L156.941 103.447ZM158.836 106H159.836V104H158.836V106ZM160.836 105V104.03H158.836V105H160.836ZM160.836 104.03C160.836 104.066 160.846 103.944 160.992 103.6C161.116 103.307 161.288 102.965 161.47 102.628C161.65 102.294 161.831 101.981 161.968 101.75C162.037 101.635 162.093 101.542 162.133 101.477C162.152 101.445 162.168 101.421 162.178 101.404C162.183 101.396 162.187 101.39 162.189 101.386C162.19 101.384 162.191 101.382 162.192 101.382C162.192 101.381 162.192 101.381 162.192 101.381C162.192 101.381 162.192 101.381 162.192 101.381C162.192 101.381 162.192 101.381 162.192 101.381C162.192 101.381 162.192 101.381 161.344 100.851C160.496 100.321 160.496 100.321 160.496 100.321C160.496 100.321 160.496 100.321 160.496 100.321C160.496 100.321 160.496 100.321 160.496 100.321C160.496 100.322 160.495 100.322 160.495 100.323C160.494 100.325 160.493 100.327 160.491 100.329C160.488 100.335 160.483 100.342 160.477 100.352C160.465 100.371 160.448 100.399 160.426 100.434C160.383 100.505 160.322 100.606 160.249 100.729C160.103 100.975 159.907 101.313 159.71 101.678C159.515 102.04 159.309 102.445 159.15 102.82C159.013 103.144 158.836 103.611 158.836 104.03H160.836ZM162.205 101.36C162.403 101.026 162.559 100.613 162.667 100.226C162.774 99.839 162.854 99.4009 162.854 99.0066H160.854C160.854 99.161 160.817 99.4103 160.74 99.6912C160.662 99.9714 160.564 100.206 160.484 100.341L162.205 101.36ZM162.854 99.0066V94.9718H160.854V99.0066H162.854ZM162.853 94.9516C162.824 93.4818 161.588 92.3545 160.139 92.3545V94.3545C160.565 94.3545 160.847 94.6752 160.854 94.992L162.853 94.9516ZM160.139 92.3545C159.164 92.3545 158.291 93.1198 158.291 94.1634H160.291C160.291 94.2317 160.26 94.2858 160.229 94.3152C160.199 94.3437 160.165 94.3545 160.139 94.3545V92.3545ZM158.291 94.1634V94.4866H160.291V94.1634H158.291ZM160.291 94.4866C160.291 92.9966 159.038 91.8693 157.595 91.8693V93.8693C158.025 93.8693 158.291 94.19 158.291 94.4866H160.291ZM157.595 91.8693C156.619 91.8693 155.746 92.6346 155.746 93.6782H157.746C157.746 93.7465 157.715 93.8005 157.685 93.8299C157.655 93.8585 157.621 93.8693 157.595 93.8693V91.8693ZM155.746 93.6782V94.0013H157.746V93.6782H155.746ZM157.746 94.0013C157.746 92.5113 156.494 91.3841 155.05 91.3841V93.3841C155.48 93.3841 155.746 93.7047 155.746 94.0013H157.746ZM155.05 91.3841C154.074 91.3841 153.201 92.1494 153.201 93.193H155.201C155.201 93.2613 155.171 93.3153 155.14 93.3447C155.11 93.3733 155.076 93.3841 155.05 93.3841V91.3841ZM153.201 93.193V93.5161H155.201V93.193H153.201ZM155.201 93.5161C155.201 93.3088 155.18 93.0809 155.107 92.8565L153.206 93.4795C153.198 93.4555 153.198 93.4444 153.199 93.4516C153.199 93.4587 153.201 93.4791 153.201 93.5161H155.201ZM155.155 93.106L154.896 88.9392L152.9 89.0632L153.158 93.23L155.155 93.106ZM154.896 88.9392C154.828 87.845 153.912 87 152.836 87V89C152.844 89 152.86 89.0035 152.877 89.0193C152.893 89.0344 152.899 89.0498 152.9 89.0632L154.896 88.9392ZM152.836 87C151.725 87 150.836 87.8977 150.836 88.9998H152.836V89V87ZM150.836 88.9998V93H152.836V88.9998H150.836ZM150.836 93V98H152.836V93H150.836ZM158.854 98H159.854V96H158.854V98ZM158.854 97V101H160.854V97H158.854ZM159.854 100H158.854V102H159.854V100ZM159.854 101V97H157.854V101H159.854ZM156.854 98H157.854V96H156.854V98ZM156.854 97V101H158.854V97H156.854ZM157.854 100H156.854V102H157.854V100ZM157.854 101V97H155.854V101H157.854ZM154.854 98H155.854V96H154.854V98ZM154.854 97V101H156.854V97H154.854ZM155.854 100H154.854V102H155.854V100ZM155.854 101V97H153.854V101H155.854Z" fill="black" fill-opacity="0.8" mask="url(#path-3-outside-1_1088_688)"/>
</g>
<defs>
<filter id="filter0_d_1088_688" x="144" y="85" width="21.8535" height="25" filterUnits="userSpaceOnUse" color-interpolation-filters="sRGB">
<feFlood flood-opacity="0" result="BackgroundImageFix"/>
<feColorMatrix in="SourceAlpha" type="matrix" values="0 0 0 0 0 0 0 0 0 0 0 0 0 0 0 0 0 0 127 0" result="hardAlpha"/>
<feOffset dy="1"/>
<feGaussianBlur stdDeviation="1.5"/>
<feColorMatrix type="matrix" values="0 0 0 0 0 0 0 0 0 0 0 0 0 0 0 0 0 0 0.2 0"/>
<feBlend mode="normal" in2="BackgroundImageFix" result="effect1_dropShadow_1088_688"/>
<feBlend mode="normal" in="SourceGraphic" in2="effect1_dropShadow_1088_688" result="shape"/>
</filter>
</defs>
</svg>
