<svg width="244" height="175" viewBox="0 0 244 175" fill="none" xmlns="http://www.w3.org/2000/svg">
<rect width="244" height="175" fill="#F3F0FF"/>
<path d="M49 68.5C49 66.567 50.567 65 52.5 65H191.5C193.433 65 195 66.567 195 68.5V106.5C195 108.433 193.433 110 191.5 110H52.5C50.567 110 49 108.433 49 106.5V68.5Z" stroke="#601DD3"/>
<rect x="56.5" y="72.5" width="113" height="8" rx="4" fill="#7136ed"/>
<rect x="171.5" y="72.5" width="16" height="8" rx="4" fill="#e4ddff"/>
<path d="M180 76.5C180 74.567 181.567 73 183.5 73C185.433 73 187 74.567 187 76.5C187 78.433 185.433 80 183.5 80C181.567 80 180 78.433 180 76.5Z" fill="#F9F9FA"/>
<path d="M180 76.5C180 74.567 181.567 73 183.5 73C185.433 73 187 74.567 187 76.5C187 78.433 185.433 80 183.5 80C181.567 80 180 78.433 180 76.5Z" stroke="#601DD3"/>
<rect x="56.5" y="84.5" width="101" height="8" rx="4" fill="#e4ddff"/>
<rect x="56.5" y="94.5" width="95" height="8" rx="4" fill="#e4ddff"/>
</svg>
