<svg width="244" height="175" viewBox="0 0 244 175" fill="none" xmlns="http://www.w3.org/2000/svg">
<rect width="244" height="175" fill="#F4EFFC"/>
<path d="M54 18C54 16.067 55.567 14.5 57.5 14.5H186.5C188.433 14.5 190 16.067 190 18V37.5H54V18Z" fill="#F9F9FA"/>
<path d="M54 18C54 16.067 55.567 14.5 57.5 14.5H186.5C188.433 14.5 190 16.067 190 18V37.5H54V18Z" stroke="#7542D9"/>
<rect x="62" y="22.5" width="7" height="7" rx="1.5" fill="#DFD3F6"/>
<rect x="62" y="22.5" width="7" height="7" rx="1.5" stroke="#5D21D2"/>
<rect x="73.5" y="22" width="49" height="8" rx="4" fill="#DFD3F6"/>
<rect x="54" y="37.5" width="136" height="41" fill="#F9F9FA"/>
<rect x="54" y="37.5" width="136" height="41" stroke="#7542D9"/>
<rect x="62" y="54.5" width="7" height="7" rx="1.5" fill="#DFD3F6"/>
<rect x="62" y="54.5" width="7" height="7" rx="1.5" stroke="#5D21D2"/>
<rect x="73.5" y="45" width="65" height="10" rx="4" fill="#7542D9"/>
<rect x="73.5" y="63" width="49" height="8" rx="4" fill="#DFD3F6"/>
<rect x="153.5" y="46" width="29" height="8" rx="4" fill="#DFD3F6"/>
<rect x="153.5" y="62" width="29" height="8" rx="4" fill="#DFD3F6"/>
<rect x="54" y="78.5" width="136" height="41" fill="#F9F9FA"/>
<rect x="54" y="78.5" width="136" height="41" stroke="#7542D9"/>
<rect x="62" y="95.5" width="7" height="7" rx="1.5" fill="#DFD3F6"/>
<rect x="62" y="95.5" width="7" height="7" rx="1.5" stroke="#5D21D2"/>
<rect x="73.5" y="86" width="65" height="10" rx="4" fill="#7542D9"/>
<rect x="73.5" y="104" width="49" height="8" rx="4" fill="#DFD3F6"/>
<rect x="153.5" y="87" width="29" height="8" rx="4" fill="#DFD3F6"/>
<rect x="153.5" y="103" width="29" height="8" rx="4" fill="#DFD3F6"/>
<path d="M54 119.5H190V157C190 158.933 188.433 160.5 186.5 160.5H57.5C55.567 160.5 54 158.933 54 157V119.5Z" fill="#F9F9FA"/>
<path d="M54 119.5H190V157C190 158.933 188.433 160.5 186.5 160.5H57.5C55.567 160.5 54 158.933 54 157V119.5Z" stroke="#7542D9"/>
<rect x="62" y="136.5" width="7" height="7" rx="1.5" fill="#DFD3F6"/>
<rect x="62" y="136.5" width="7" height="7" rx="1.5" stroke="#5D21D2"/>
<rect x="73.5" y="127" width="65" height="10" rx="4" fill="#7542D9"/>
<rect x="73.5" y="145" width="49" height="8" rx="4" fill="#DFD3F6"/>
<rect x="153.5" y="128" width="29" height="8" rx="4" fill="#DFD3F6"/>
<rect x="153.5" y="144" width="29" height="8" rx="4" fill="#DFD3F6"/>
</svg>
