<svg width="244" height="175" viewBox="0 0 244 175" fill="none" xmlns="http://www.w3.org/2000/svg">
<rect width="244" height="175" fill="#F3F0FF"/>
<g clip-path="url(#clip0_1167_1183)">
<rect x="66" y="33.5" width="112" height="108" rx="4" fill="#F9F9FA"/>
<rect width="112" height="52" transform="translate(66 33.5)" fill="#F3F0FF"/>
<rect x="74" y="93.5" width="59" height="8" rx="4" fill="#7136ed"/>
<path d="M168.847 99.6404C168.977 99.7659 169.029 99.9518 168.984 100.127C168.938 100.301 168.801 100.438 168.627 100.484C168.452 100.529 168.266 100.477 168.14 100.347L165.994 98.2009L163.847 100.347C163.651 100.537 163.339 100.534 163.146 100.341C162.954 100.148 162.951 99.8365 163.14 99.6404L165.287 97.4939L163.14 95.3474C162.951 95.1512 162.954 94.8393 163.146 94.6464C163.339 94.4536 163.651 94.4509 163.847 94.6404L165.994 96.7869L168.14 94.6404C168.337 94.4509 168.648 94.4536 168.841 94.6464C169.034 94.8393 169.037 95.1512 168.847 95.3474L166.701 97.4939L168.847 99.6404Z" fill="#601DD3"/>
<rect x="74" y="109.5" width="96" height="8" rx="4" fill="#e4ddff"/>
<rect x="128" y="125.5" width="19" height="8" rx="2" fill="#e4ddff"/>
<rect x="151" y="125.5" width="19" height="8" rx="2" fill="#7136ed"/>
</g>
<rect x="66.5" y="34" width="111" height="107" rx="3.5" stroke="#601DD3"/>
<defs>
<clipPath id="clip0_1167_1183">
<rect x="66" y="33.5" width="112" height="108" rx="4" fill="white"/>
</clipPath>
</defs>
</svg>
