<svg width="244" height="175" viewBox="0 0 244 175" fill="none" xmlns="http://www.w3.org/2000/svg">
<rect width="244" height="175" fill="#F3F0FF"/>
<rect x="66.5" y="51" width="111" height="73" rx="3.5" fill="#F9F9FA"/>
<rect x="66.5" y="51" width="111" height="73" rx="3.5" stroke="#601DD3"/>
<rect x="74" y="61.5" width="59" height="8" rx="4" fill="#7136ed"/>
<path d="M168.847 67.6404C168.977 67.7659 169.029 67.9518 168.984 68.1266C168.938 68.3014 168.801 68.4379 168.627 68.4837C168.452 68.5295 168.266 68.4773 168.14 68.3474L165.994 66.2009L163.847 68.3474C163.651 68.5368 163.339 68.5341 163.146 68.3413C162.954 68.1484 162.951 67.8365 163.14 67.6404L165.287 65.4939L163.14 63.3474C162.951 63.1512 162.954 62.8393 163.146 62.6464C163.339 62.4536 163.651 62.4509 163.847 62.6404L165.994 64.7869L168.14 62.6404C168.337 62.4509 168.648 62.4536 168.841 62.6464C169.034 62.8393 169.037 63.1512 168.847 63.3474L166.701 65.4939L168.847 67.6404Z" fill="#601DD3"/>
<rect x="74" y="77.5" width="96" height="8" rx="4" fill="#e4ddff"/>
<rect x="74" y="89.5" width="96" height="8" rx="4" fill="#e4ddff"/>
<rect x="128" y="105.5" width="19" height="8" rx="2" fill="#e4ddff"/>
<rect x="151" y="105.5" width="19" height="8" rx="2" fill="#7136ed"/>
</svg>
