<svg width="244" height="175" viewBox="0 0 244 175" fill="none" xmlns="http://www.w3.org/2000/svg">
<rect width="244" height="175" fill="#F3F0FF"/>
<g clip-path="url(#clip0_1167_1208)">
<rect x="66" y="33.5" width="112" height="108" rx="4" fill="#F9F9FA"/>
<path d="M66 53.5C66 49.0817 69.5817 45.5 74 45.5H170C174.418 45.5 178 49.0817 178 53.5V141.5H66V53.5Z" fill="#F3F0FF"/>
<rect x="74" y="53.5" width="26" height="8" rx="4" fill="#e4ddff"/>
<path d="M168.847 59.6404C168.977 59.7659 169.029 59.9518 168.984 60.1266C168.938 60.3014 168.801 60.4379 168.627 60.4837C168.452 60.5295 168.266 60.4773 168.14 60.3474L165.994 58.2009L163.847 60.3474C163.651 60.5368 163.339 60.5341 163.146 60.3413C162.954 60.1484 162.951 59.8365 163.14 59.6404L165.287 57.4939L163.14 55.3474C162.951 55.1512 162.954 54.8393 163.146 54.6464C163.339 54.4536 163.651 54.4509 163.847 54.6404L165.994 56.7869L168.14 54.6404C168.337 54.4509 168.648 54.4536 168.841 54.6464C169.034 54.8393 169.037 55.1512 168.847 55.3474L166.701 57.4939L168.847 59.6404Z" fill="#601DD3"/>
</g>
<rect x="66.5" y="34" width="111" height="107" rx="3.5" stroke="#601DD3"/>
<defs>
<clipPath id="clip0_1167_1208">
<rect x="66" y="33.5" width="112" height="108" rx="4" fill="white"/>
</clipPath>
</defs>
</svg>
