<svg width="244" height="175" viewBox="0 0 244 175" fill="none" xmlns="http://www.w3.org/2000/svg">
<rect width="244" height="175" fill="#F4EFFC"/>
<path d="M82.5 29.5C82.5 27.567 84.067 26 86 26H161.5V149H86C84.067 149 82.5 147.433 82.5 145.5V29.5Z" fill="#F9F9FA"/>
<path d="M82.5 29.5C82.5 27.567 84.067 26 86 26H161.5V149H86C84.067 149 82.5 147.433 82.5 145.5V29.5Z" stroke="#DFD3F6"/>
<rect x="90" y="33.5" width="41" height="8" rx="4" fill="#5D21D2"/>
<rect x="146" y="33.5" width="8" height="8" rx="4" fill="#5D21D2"/>
<path d="M90 133.5C90 131.291 91.7909 129.5 94 129.5H117C119.209 129.5 121 131.291 121 133.5V137.5C121 139.709 119.209 141.5 117 141.5H94C91.7909 141.5 90 139.709 90 137.5V133.5Z" fill="#DFD3F6"/>
<path d="M123 133.5C123 131.291 124.791 129.5 127 129.5H150C152.209 129.5 154 131.291 154 133.5V137.5C154 139.709 152.209 141.5 150 141.5H127C124.791 141.5 123 139.709 123 137.5V133.5Z" fill="#5D21D2"/>
</svg>
