<svg width="253" height="171" viewBox="0 0 253 171" fill="none" xmlns="http://www.w3.org/2000/svg">
<rect width="253" height="171" fill="#F3F0FF"/>
<rect x="71" y="63" width="111" height="23" rx="3.5" fill="#F9F9FA"/>
<rect x="71" y="63" width="111" height="23" rx="3.5" stroke="#601DD3"/>
<path d="M170.5 74.5C170.5 72.2909 172.291 70.5 174.5 70.5C176.709 70.5 178.5 72.2909 178.5 74.5C178.5 76.7091 176.709 78.5 174.5 78.5C172.291 78.5 170.5 76.7091 170.5 74.5Z" fill="#e4ddff"/>
<rect x="70.5" y="90.5" width="112" height="18" rx="4" fill="#e4ddff"/>
<path d="M73.5 99C73.5 96.7909 75.2909 95 77.5 95C79.7091 95 81.5 96.7909 81.5 99C81.5 101.209 79.7091 103 77.5 103C75.2909 103 73.5 101.209 73.5 99Z" fill="#F3F0FF"/>
<path d="M118.5 99C118.5 96.7909 120.291 95 122.5 95C124.709 95 126.5 96.7909 126.5 99C126.5 101.209 124.709 103 122.5 103C120.291 103 118.5 101.209 118.5 99Z" fill="#F3F0FF"/>
<path d="M84.5 99C84.5 96.7909 86.2909 95 88.5 95H107.5C109.709 95 111.5 96.7909 111.5 99C111.5 101.209 109.709 103 107.5 103H88.5C86.2909 103 84.5 101.209 84.5 99Z" fill="#F3F0FF"/>
<path d="M129.5 99C129.5 96.7909 131.291 95 133.5 95H152.5C154.709 95 156.5 96.7909 156.5 99C156.5 101.209 154.709 103 152.5 103H133.5C131.291 103 129.5 101.209 129.5 99Z" fill="#F3F0FF"/>
</svg>
