<svg width="244" height="175" viewBox="0 0 244 175" fill="none" xmlns="http://www.w3.org/2000/svg">
<rect width="244" height="175" fill="#F4EFFC"/>
<path d="M66.5 71.5C66.5 69.567 68.067 68 70 68C71.933 68 73.5 69.567 73.5 71.5C73.5 73.433 71.933 75 70 75C68.067 75 66.5 73.433 66.5 71.5Z" fill="#5D21D2"/>
<path d="M66.5 71.5C66.5 69.567 68.067 68 70 68C71.933 68 73.5 69.567 73.5 71.5C73.5 73.433 71.933 75 70 75C68.067 75 66.5 73.433 66.5 71.5Z" stroke="#5D21D2"/>
<rect x="78" y="67.5" width="100" height="8" rx="4" fill="#7542D9"/>
<path d="M66.5 87.5C66.5 85.567 68.067 84 70 84C71.933 84 73.5 85.567 73.5 87.5C73.5 89.433 71.933 91 70 91C68.067 91 66.5 89.433 66.5 87.5Z" fill="#F9F9FA"/>
<path d="M66.5 87.5C66.5 85.567 68.067 84 70 84C71.933 84 73.5 85.567 73.5 87.5C73.5 89.433 71.933 91 70 91C68.067 91 66.5 89.433 66.5 87.5Z" stroke="#5D21D2"/>
<rect x="78" y="83.5" width="100" height="8" rx="4" fill="#7542D9"/>
<path d="M66.5 103.5C66.5 101.567 68.067 100 70 100C71.933 100 73.5 101.567 73.5 103.5C73.5 105.433 71.933 107 70 107C68.067 107 66.5 105.433 66.5 103.5Z" fill="#F9F9FA"/>
<path d="M66.5 103.5C66.5 101.567 68.067 100 70 100C71.933 100 73.5 101.567 73.5 103.5C73.5 105.433 71.933 107 70 107C68.067 107 66.5 105.433 66.5 103.5Z" stroke="#5D21D2"/>
<rect x="78" y="99.5" width="100" height="8" rx="4" fill="#7542D9"/>
</svg>
