<svg width="244" height="175" viewBox="0 0 244 175" fill="none" xmlns="http://www.w3.org/2000/svg">
<rect width="244" height="175" fill="#F4EFFC"/>
<path d="M87 87.5C87 85.567 88.567 84 90.5 84C92.433 84 94 85.567 94 87.5C94 89.433 92.433 91 90.5 91C88.567 91 87 89.433 87 87.5Z" fill="#F9F9FA"/>
<path d="M87 87.5C87 85.567 88.567 84 90.5 84C92.433 84 94 85.567 94 87.5C94 89.433 92.433 91 90.5 91C88.567 91 87 89.433 87 87.5Z" stroke="#5D21D2"/>
<rect x="98.5" y="83.5" width="59" height="8" rx="4" fill="#7542D9"/>
</svg>
