<svg width="244" height="175" viewBox="0 0 244 175" fill="none" xmlns="http://www.w3.org/2000/svg">
<rect width="244" height="175" fill="#F3F0FF"/>
<rect x="66.5" y="59" width="111" height="57" rx="3.5" fill="#F9F9FA"/>
<rect x="66.5" y="59" width="111" height="57" rx="3.5" stroke="#601DD3"/>
<rect x="74" y="69.5" width="59" height="8" rx="4" fill="#7136ed"/>
<path d="M162.5 73.5C162.5 71.567 164.067 70 166 70C167.933 70 169.5 71.567 169.5 73.5C169.5 75.433 167.933 77 166 77C164.067 77 162.5 75.433 162.5 73.5Z" fill="#F9F9FA"/>
<path d="M162.5 73.5C162.5 71.567 164.067 70 166 70C167.933 70 169.5 71.567 169.5 73.5C169.5 75.433 167.933 77 166 77C164.067 77 162.5 75.433 162.5 73.5Z" stroke="#601DD3"/>
<rect x="74" y="85.5" width="95" height="8" rx="4" fill="#e4ddff"/>
<rect x="74" y="97.5" width="101" height="8" rx="4" fill="#e4ddff"/>
</svg>
