<svg width="244" height="175" viewBox="0 0 244 175" fill="none" xmlns="http://www.w3.org/2000/svg">
<rect width="244" height="175" fill="#F3F0FF"/>
<rect x="66" y="83.5" width="94" height="8" rx="4" fill="#7136ed"/>
<rect x="162" y="83.5" width="16" height="8" rx="4" fill="#e4ddff"/>
<path d="M170.5 87.5C170.5 85.567 172.067 84 174 84C175.933 84 177.5 85.567 177.5 87.5C177.5 89.433 175.933 91 174 91C172.067 91 170.5 89.433 170.5 87.5Z" fill="#F9F9FA"/>
<path d="M170.5 87.5C170.5 85.567 172.067 84 174 84C175.933 84 177.5 85.567 177.5 87.5C177.5 89.433 175.933 91 174 91C172.067 91 170.5 89.433 170.5 87.5Z" stroke="#601DD3"/>
</svg>
