<svg width="244" height="175" viewBox="0 0 244 175" fill="none" xmlns="http://www.w3.org/2000/svg">
<rect width="244" height="175" fill="#F3F0FF"/>
<path d="M54 45C54 43.067 55.567 41.5 57.5 41.5H186.5C188.433 41.5 190 43.067 190 45V64.5H54V45Z" fill="#F9F9FA"/>
<path d="M54 45C54 43.067 55.567 41.5 57.5 41.5H186.5C188.433 41.5 190 43.067 190 45V64.5H54V45Z" stroke="#7136ed"/>
<rect x="62" y="49.5" width="7" height="7" rx="1.5" fill="#e4ddff"/>
<rect x="62" y="49.5" width="7" height="7" rx="1.5" stroke="#601DD3"/>
<rect x="73.5" y="49" width="49" height="8" rx="4" fill="#e4ddff"/>
<rect x="132" y="49" width="15" height="8" rx="4" fill="#e4ddff"/>
<rect x="156.5" y="49" width="26" height="8" rx="4" fill="#e4ddff"/>
<rect x="54" y="64.5" width="136" height="23" fill="#F9F9FA"/>
<rect x="54" y="64.5" width="136" height="23" stroke="#7136ed"/>
<rect x="62" y="72.5" width="7" height="7" rx="1.5" fill="#e4ddff"/>
<rect x="62" y="72.5" width="7" height="7" rx="1.5" stroke="#601DD3"/>
<rect x="73.5" y="72" width="49" height="8" rx="4" fill="#7136ed"/>
<rect x="132" y="72" width="15" height="8" rx="4" fill="#7136ed"/>
<rect x="156.5" y="72" width="26" height="8" rx="4" fill="#7136ed"/>
<rect x="54" y="87.5" width="136" height="23" fill="#F9F9FA"/>
<rect x="54" y="87.5" width="136" height="23" stroke="#7136ed"/>
<rect x="62" y="95.5" width="7" height="7" rx="1.5" fill="#e4ddff"/>
<rect x="62" y="95.5" width="7" height="7" rx="1.5" stroke="#601DD3"/>
<rect x="73.5" y="95" width="49" height="8" rx="4" fill="#7136ed"/>
<rect x="132" y="95" width="15" height="8" rx="4" fill="#7136ed"/>
<rect x="156.5" y="95" width="26" height="8" rx="4" fill="#7136ed"/>
<path d="M54 110.5H190V130C190 131.933 188.433 133.5 186.5 133.5H57.5C55.567 133.5 54 131.933 54 130V110.5Z" fill="#F9F9FA"/>
<path d="M54 110.5H190V130C190 131.933 188.433 133.5 186.5 133.5H57.5C55.567 133.5 54 131.933 54 130V110.5Z" stroke="#7136ed"/>
<rect x="62" y="118.5" width="7" height="7" rx="1.5" fill="#e4ddff"/>
<rect x="62" y="118.5" width="7" height="7" rx="1.5" stroke="#601DD3"/>
<rect x="73.5" y="118" width="49" height="8" rx="4" fill="#7136ed"/>
<rect x="132" y="118" width="15" height="8" rx="4" fill="#7136ed"/>
<rect x="156.5" y="118" width="26" height="8" rx="4" fill="#7136ed"/>
</svg>
