<svg width="244" height="175" viewBox="0 0 244 175" fill="none" xmlns="http://www.w3.org/2000/svg">
<rect width="244" height="175" fill="#F3F0FF"/>
<path d="M61.5 60.5C61.5 58.2909 63.2909 56.5 65.5 56.5H178.5C180.709 56.5 182.5 58.2909 182.5 60.5V78.5C182.5 80.7091 180.709 82.5 178.5 82.5H65.5C63.2909 82.5 61.5 80.7091 61.5 78.5V60.5Z" fill="#601DD3"/>
<rect x="65.5" y="60.5" width="113" height="8" rx="4" fill="#F3F0FF"/>
<rect x="65.5" y="70.5" width="63" height="8" rx="4" fill="#F3F0FF"/>
<path d="M55.5 90.5C55.5 88.2909 57.2909 86.5 59.5 86.5H184.5C186.709 86.5 188.5 88.2909 188.5 90.5V114.5C188.5 116.709 186.709 118.5 184.5 118.5H59.5C57.2909 118.5 55.5 116.709 55.5 114.5V90.5Z" fill="#e4ddff"/>
<path d="M83.5 100.5C83.5 98.2909 85.2909 96.5 87.5 96.5H156.5C158.709 96.5 160.5 98.2909 160.5 100.5V104.5C160.5 106.709 158.709 108.5 156.5 108.5H87.5C85.2909 108.5 83.5 106.709 83.5 104.5V100.5Z" fill="#7136ed"/>
<g filter="url(#filter0_d_1167_1496)">
<mask id="path-6-outside-1_1167_1496" maskUnits="userSpaceOnUse" x="165" y="96" width="16" height="19" fill="black">
<rect fill="white" x="165" y="96" width="16" height="19"/>
<path fill-rule="evenodd" clip-rule="evenodd" d="M169.836 107L168.949 105.645C168.344 104.72 167.054 104.383 166.068 104.89L166.298 104.772C166.053 104.898 165.935 105.211 166.036 105.472L167.263 108.647C167.458 109.151 167.955 109.863 168.367 110.22C168.367 110.22 170.836 112.264 170.836 113.03V114H174.836L175.836 112L176.836 114H177.836V113.03C177.836 112.264 179.344 109.851 179.344 109.851C179.622 109.382 179.854 108.555 179.854 108.007V103.972C179.836 103.078 179.076 102.355 178.139 102.355C177.671 102.355 177.291 102.717 177.291 103.163V103.487C177.291 102.593 176.532 101.869 175.595 101.869C175.126 101.869 174.746 102.231 174.746 102.678V103.001C174.746 102.108 173.987 101.384 173.05 101.384C172.581 101.384 172.201 101.746 172.201 102.193V102.516C172.201 102.373 172.186 102.258 172.157 102.168L171.898 98.0012C171.863 97.4378 171.388 97 170.836 97C170.279 97 169.836 97.4476 169.836 97.9998V102V107ZM176.854 106H177.854V110H176.854V106ZM174.854 106H175.854V110H174.854V106ZM172.854 106H173.854V110H172.854V106Z"/>
</mask>
<path fill-rule="evenodd" clip-rule="evenodd" d="M169.836 107L168.949 105.645C168.344 104.72 167.054 104.383 166.068 104.89L166.298 104.772C166.053 104.898 165.935 105.211 166.036 105.472L167.263 108.647C167.458 109.151 167.955 109.863 168.367 110.22C168.367 110.22 170.836 112.264 170.836 113.03V114H174.836L175.836 112L176.836 114H177.836V113.03C177.836 112.264 179.344 109.851 179.344 109.851C179.622 109.382 179.854 108.555 179.854 108.007V103.972C179.836 103.078 179.076 102.355 178.139 102.355C177.671 102.355 177.291 102.717 177.291 103.163V103.487C177.291 102.593 176.532 101.869 175.595 101.869C175.126 101.869 174.746 102.231 174.746 102.678V103.001C174.746 102.108 173.987 101.384 173.05 101.384C172.581 101.384 172.201 101.746 172.201 102.193V102.516C172.201 102.373 172.186 102.258 172.157 102.168L171.898 98.0012C171.863 97.4378 171.388 97 170.836 97C170.279 97 169.836 97.4476 169.836 97.9998V102V107ZM176.854 106H177.854V110H176.854V106ZM174.854 106H175.854V110H174.854V106ZM172.854 106H173.854V110H172.854V106Z" fill="white"/>
<path d="M169.836 107L168.999 107.548L170.836 110.354V107H169.836ZM168.949 105.645L169.786 105.098L168.949 105.645ZM166.036 105.472L165.103 105.833L166.036 105.472ZM167.263 108.647L168.196 108.287L167.263 108.647ZM168.367 110.22L167.711 110.975L167.72 110.983L167.729 110.991L168.367 110.22ZM170.836 114H169.836V115H170.836V114ZM174.836 114V115H175.454L175.73 114.447L174.836 114ZM175.836 112L176.73 111.553L175.836 109.764L174.941 111.553L175.836 112ZM176.836 114L175.941 114.447L176.218 115H176.836V114ZM177.836 114V115H178.836V114H177.836ZM179.344 109.851L180.192 110.381L180.199 110.371L180.205 110.36L179.344 109.851ZM179.854 103.972H180.854V103.962L180.853 103.952L179.854 103.972ZM172.157 102.168L171.158 102.23L171.166 102.358L171.206 102.479L172.157 102.168ZM171.898 98.0012L170.9 98.0632V98.0632L171.898 98.0012ZM169.836 97.9998H168.836H169.836ZM177.854 106H178.854V105H177.854V106ZM177.854 110V111H178.854V110H177.854ZM176.854 110H175.854V111H176.854V110ZM175.854 106H176.854V105H175.854V106ZM175.854 110V111H176.854V110H175.854ZM174.854 110H173.854V111H174.854V110ZM173.854 106H174.854V105H173.854V106ZM173.854 110V111H174.854V110H173.854ZM172.854 110H171.854V111H172.854V110ZM170.672 106.452L169.786 105.098L168.112 106.193L168.999 107.548L170.672 106.452ZM169.786 105.098C168.898 103.742 167.049 103.261 165.61 104.001L166.525 105.779C167.059 105.505 167.789 105.699 168.112 106.193L169.786 105.098ZM166.525 105.779L166.755 105.661L165.84 103.882L165.61 104.001L166.525 105.779ZM165.84 103.882C165.131 104.247 164.822 105.105 165.103 105.833L166.969 105.112C167.014 105.23 167.005 105.34 166.974 105.421C166.944 105.503 166.876 105.599 166.755 105.661L165.84 103.882ZM165.103 105.833L166.331 109.008L168.196 108.287L166.969 105.112L165.103 105.833ZM166.331 109.008C166.583 109.662 167.175 110.51 167.711 110.975L169.022 109.465C168.735 109.216 168.333 108.64 168.196 108.287L166.331 109.008ZM168.367 110.22C167.729 110.991 167.729 110.991 167.729 110.991C167.729 110.991 167.729 110.991 167.729 110.991C167.729 110.991 167.729 110.991 167.729 110.991C167.729 110.991 167.729 110.991 167.73 110.991C167.73 110.992 167.732 110.993 167.734 110.995C167.738 110.998 167.744 111.003 167.752 111.01C167.768 111.024 167.793 111.045 167.825 111.072C167.889 111.126 167.981 111.205 168.092 111.303C168.315 111.499 168.609 111.765 168.9 112.051C169.196 112.342 169.468 112.632 169.659 112.88C169.755 113.004 169.813 113.095 169.843 113.152C169.884 113.23 169.836 113.174 169.836 113.03H171.836C171.836 112.694 171.71 112.407 171.616 112.226C171.511 112.025 171.376 111.831 171.241 111.656C170.969 111.304 170.624 110.941 170.302 110.625C169.976 110.304 169.653 110.012 169.413 109.801C169.292 109.695 169.191 109.608 169.12 109.548C169.085 109.517 169.056 109.494 169.037 109.477C169.027 109.469 169.019 109.462 169.014 109.458C169.011 109.455 169.009 109.454 169.007 109.452C169.006 109.452 169.006 109.451 169.005 109.451C169.005 109.451 169.005 109.45 169.005 109.45C169.005 109.45 169.004 109.45 169.004 109.45C169.004 109.45 169.004 109.45 168.367 110.22ZM169.836 113.03V114H171.836V113.03H169.836ZM170.836 115H174.836V113H170.836V115ZM175.73 114.447L176.73 112.447L174.941 111.553L173.941 113.553L175.73 114.447ZM174.941 112.447L175.941 114.447L177.73 113.553L176.73 111.553L174.941 112.447ZM176.836 115H177.836V113H176.836V115ZM178.836 114V113.03H176.836V114H178.836ZM178.836 113.03C178.836 113.066 178.846 112.944 178.992 112.6C179.116 112.307 179.288 111.965 179.47 111.628C179.65 111.294 179.831 110.981 179.968 110.75C180.037 110.635 180.093 110.542 180.133 110.477C180.152 110.445 180.168 110.421 180.178 110.404C180.183 110.396 180.187 110.39 180.189 110.386C180.19 110.384 180.191 110.382 180.192 110.382C180.192 110.381 180.192 110.381 180.192 110.381C180.192 110.381 180.192 110.381 180.192 110.381C180.192 110.381 180.192 110.381 180.192 110.381C180.192 110.381 180.192 110.381 179.344 109.851C178.496 109.321 178.496 109.321 178.496 109.321C178.496 109.321 178.496 109.321 178.496 109.321C178.496 109.321 178.496 109.321 178.496 109.321C178.496 109.322 178.495 109.322 178.495 109.323C178.494 109.325 178.493 109.327 178.491 109.329C178.488 109.335 178.483 109.342 178.477 109.352C178.465 109.371 178.448 109.399 178.426 109.434C178.383 109.505 178.322 109.606 178.249 109.729C178.103 109.975 177.907 110.313 177.71 110.678C177.515 111.04 177.309 111.445 177.15 111.82C177.013 112.144 176.836 112.611 176.836 113.03H178.836ZM180.205 110.36C180.403 110.026 180.559 109.613 180.667 109.226C180.774 108.839 180.854 108.401 180.854 108.007H178.854C178.854 108.161 178.817 108.41 178.74 108.691C178.662 108.971 178.564 109.206 178.484 109.341L180.205 110.36ZM180.854 108.007V103.972H178.854V108.007H180.854ZM180.853 103.952C180.824 102.482 179.588 101.355 178.139 101.355V103.355C178.565 103.355 178.847 103.675 178.854 103.992L180.853 103.952ZM178.139 101.355C177.164 101.355 176.291 102.12 176.291 103.163H178.291C178.291 103.232 178.26 103.286 178.229 103.315C178.199 103.344 178.165 103.355 178.139 103.355V101.355ZM176.291 103.163V103.487H178.291V103.163H176.291ZM178.291 103.487C178.291 101.997 177.038 100.869 175.595 100.869V102.869C176.025 102.869 176.291 103.19 176.291 103.487H178.291ZM175.595 100.869C174.619 100.869 173.746 101.635 173.746 102.678H175.746C175.746 102.746 175.715 102.801 175.685 102.83C175.655 102.859 175.621 102.869 175.595 102.869V100.869ZM173.746 102.678V103.001H175.746V102.678H173.746ZM175.746 103.001C175.746 101.511 174.494 100.384 173.05 100.384V102.384C173.48 102.384 173.746 102.705 173.746 103.001H175.746ZM173.05 100.384C172.074 100.384 171.201 101.149 171.201 102.193H173.201C173.201 102.261 173.171 102.315 173.14 102.345C173.11 102.373 173.076 102.384 173.05 102.384V100.384ZM171.201 102.193V102.516H173.201V102.193H171.201ZM173.201 102.516C173.201 102.309 173.18 102.081 173.107 101.857L171.206 102.479C171.198 102.456 171.198 102.444 171.199 102.452C171.199 102.459 171.201 102.479 171.201 102.516H173.201ZM173.155 102.106L172.896 97.9392L170.9 98.0632L171.158 102.23L173.155 102.106ZM172.896 97.9392C172.828 96.845 171.912 96 170.836 96V98C170.844 98 170.86 98.0035 170.877 98.0193C170.893 98.0344 170.899 98.0498 170.9 98.0632L172.896 97.9392ZM170.836 96C169.725 96 168.836 96.8977 168.836 97.9998H170.836V98V96ZM168.836 97.9998V102H170.836V97.9998H168.836ZM168.836 102V107H170.836V102H168.836ZM176.854 107H177.854V105H176.854V107ZM176.854 106V110H178.854V106H176.854ZM177.854 109H176.854V111H177.854V109ZM177.854 110V106H175.854V110H177.854ZM174.854 107H175.854V105H174.854V107ZM174.854 106V110H176.854V106H174.854ZM175.854 109H174.854V111H175.854V109ZM175.854 110V106H173.854V110H175.854ZM172.854 107H173.854V105H172.854V107ZM172.854 106V110H174.854V106H172.854ZM173.854 109H172.854V111H173.854V109ZM173.854 110V106H171.854V110H173.854Z" fill="black" fill-opacity="0.8" mask="url(#path-6-outside-1_1167_1496)"/>
</g>
<defs>
<filter id="filter0_d_1167_1496" x="162" y="94" width="21.8535" height="25" filterUnits="userSpaceOnUse" color-interpolation-filters="sRGB">
<feFlood flood-opacity="0" result="BackgroundImageFix"/>
<feColorMatrix in="SourceAlpha" type="matrix" values="0 0 0 0 0 0 0 0 0 0 0 0 0 0 0 0 0 0 127 0" result="hardAlpha"/>
<feOffset dy="1"/>
<feGaussianBlur stdDeviation="1.5"/>
<feColorMatrix type="matrix" values="0 0 0 0 0 0 0 0 0 0 0 0 0 0 0 0 0 0 0.2 0"/>
<feBlend mode="normal" in2="BackgroundImageFix" result="effect1_dropShadow_1167_1496"/>
<feBlend mode="normal" in="SourceGraphic" in2="effect1_dropShadow_1167_1496" result="shape"/>
</filter>
</defs>
</svg>
