<svg width="244" height="175" viewBox="0 0 244 175" fill="none" xmlns="http://www.w3.org/2000/svg">
<rect width="244" height="175" fill="#F4EFFC"/>
<rect x="58.5" y="48" width="127" height="79" rx="3.5" fill="#F9F9FA"/>
<rect x="58.5" y="48" width="127" height="79" rx="3.5" stroke="#4719A6" stroke-dasharray="2 2"/>
<path d="M118 67.5C118 65.2909 119.791 63.5 122 63.5C124.209 63.5 126 65.2909 126 67.5C126 69.7091 124.209 71.5 122 71.5C119.791 71.5 118 69.7091 118 67.5Z" fill="#5D21D2"/>
<rect x="94" y="79.5" width="56" height="8" rx="2" fill="#DFD3F6"/>
<path d="M96.5 99.5C96.5 97.2909 98.2909 95.5 100.5 95.5H143.5C145.709 95.5 147.5 97.2909 147.5 99.5V107.5C147.5 109.709 145.709 111.5 143.5 111.5H100.5C98.2909 111.5 96.5 109.709 96.5 107.5V99.5Z" fill="#5D21D2"/>
<path d="M109 103.5C109 101.843 110.343 100.5 112 100.5H132C133.657 100.5 135 101.843 135 103.5C135 105.157 133.657 106.5 132 106.5H112C110.343 106.5 109 105.157 109 103.5Z" fill="#F4EFFC"/>
</svg>
